/* XPM */
static char *_1c7c71e1eb64261f04ad8819196a5c68V5EkCmImdERX7np[] = {
/* columns rows colors chars-per-pixel */
"50 50 241 2 ",
"   c #1A1900",
".  c #231F04",
"X  c #1D2300",
"o  c #262D01",
"O  c #292703",
"+  c #2D3201",
"@  c #293305",
"#  c #333401",
"$  c #343B01",
"%  c #3A3D01",
"&  c #3C3C0D",
"*  c #34350C",
"=  c #393816",
"-  c #302E11",
";  c #3E3B22",
":  c #403E17",
">  c #403F07",
",  c #3C4300",
"<  c #3B4407",
"1  c #3F4018",
"2  c #3D4523",
"3  c #424602",
"4  c #454C01",
"5  c #454B0D",
"6  c #4A4C0C",
"7  c #484A06",
"8  c #4C5302",
"9  c #4D5902",
"0  c #4C540B",
"q  c #485506",
"w  c #515600",
"e  c #555C02",
"r  c #585E02",
"t  c #545A0B",
"y  c #595D0C",
"u  c #52550B",
"i  c #444314",
"p  c #46461C",
"a  c #48451D",
"s  c #484C17",
"d  c #4B5119",
"f  c #545A14",
"g  c #5B5D14",
"h  c #5B5C1C",
"j  c #535319",
"k  c #5B6303",
"l  c #5D6A01",
"z  c #5C630B",
"x  c #5E690B",
"c  c #566303",
"v  c #5D6214",
"b  c #5D6716",
"n  c #606604",
"m  c #646C03",
"M  c #6A6E03",
"N  c #60660B",
"B  c #646C0B",
"V  c #696E0B",
"C  c #667102",
"Z  c #6B7303",
"A  c #6D7A02",
"S  c #65700B",
"D  c #6C740B",
"F  c #6E7A0B",
"G  c #717604",
"H  c #727C03",
"J  c #70760C",
"K  c #737B0C",
"L  c #787F0F",
"P  c #636613",
"I  c #656C13",
"U  c #696E13",
"Y  c #61651A",
"T  c #656A1B",
"R  c #696D1C",
"E  c #696619",
"W  c #6C7313",
"Q  c #6D731B",
"!  c #6A7615",
"~  c #717613",
"^  c #737C13",
"/  c #797D13",
"(  c #72751C",
")  c #747B1B",
"_  c #7A7E1B",
"`  c #4A4926",
"'  c #514C27",
"]  c #525324",
"[  c #5C5C24",
"{  c #5E5C2B",
"}  c #55552C",
"|  c #514C3B",
" . c #595636",
".. c #4E5028",
"X. c #625F35",
"o. c #5E6329",
"O. c #5C6339",
"+. c #636324",
"@. c #66652A",
"#. c #6C6C2B",
"$. c #676B24",
"%. c #6C7223",
"&. c #687029",
"*. c #717425",
"=. c #757B23",
"-. c #797E23",
";. c #73752A",
":. c #767A2C",
">. c #7A7D2C",
",. c #6C6B3C",
"<. c #67653A",
"1. c #737534",
"2. c #73733A",
"3. c #7B7B3B",
"4. c #787A37",
"5. c #716C2A",
"6. c #595A41",
"7. c #655C4D",
"8. c #5D6140",
"9. c #6A6846",
"0. c #736E4E",
"q. c #7D7C43",
"w. c #73724C",
"e. c #7D7C4D",
"r. c #767346",
"t. c #787656",
"y. c #727054",
"u. c #7B7962",
"i. c #837E4E",
"p. c #817D54",
"a. c #827D5A",
"s. c #80765D",
"d. c #847E66",
"f. c #857E78",
"g. c #768203",
"h. c #76810C",
"j. c #7A830D",
"k. c #7F890D",
"l. c #7A8504",
"z. c #768113",
"x. c #7B8413",
"c. c #7C841B",
"v. c #7B8716",
"b. c #7C832B",
"n. c #7D8524",
"m. c #7E8338",
"M. c #7E8147",
"N. c #818B0C",
"B. c #828C12",
"V. c #838B1B",
"C. c #818619",
"Z. c #879213",
"A. c #838925",
"S. c #869125",
"D. c #858639",
"F. c #84834B",
"G. c #8B8C4B",
"H. c #868845",
"J. c #8E914E",
"K. c #8A875B",
"L. c #8D8B5C",
"P. c #888654",
"I. c #918F5C",
"U. c #919154",
"Y. c #93925C",
"T. c #99995D",
"R. c #919246",
"E. c #898463",
"W. c #8D8A63",
"Q. c #8A846B",
"!. c #8A8568",
"~. c #918E63",
"^. c #928A6A",
"/. c #95926A",
"(. c #9B936D",
"). c #989566",
"_. c #8D8575",
"`. c #928375",
"'. c #938B74",
"]. c #958C7B",
"[. c #9A8D7D",
"{. c #968978",
"}. c #969174",
"|. c #9A9474",
" X c #9D9A74",
".X c #94917A",
"XX c #9B937D",
"oX c #9E997B",
"OX c #A29C73",
"+X c #A29B7C",
"@X c #A99C7F",
"#X c #A2967D",
"$X c #A49E6E",
"%X c #9DA97B",
"&X c #A5A56B",
"*X c #ABA57B",
"=X c #897F88",
"-X c #9C8F82",
";X c #958883",
":X c #9D9383",
">X c #9D9A84",
",X c #9D948A",
"<X c #9C9787",
"1X c #9F9495",
"2X c #928887",
"3X c #A29583",
"4X c #A39A84",
"5X c #A99B85",
"6X c #A3968A",
"7X c #A49B8B",
"8X c #AA9E8C",
"9X c #A8978F",
"0X c #A29594",
"qX c #A49B93",
"wX c #AA9D94",
"eX c #AB9D9B",
"rX c #A89A97",
"tX c #B29F95",
"yX c #A5A083",
"uX c #AAA485",
"iX c #ABA38C",
"pX c #ABA789",
"aX c #B2AB8D",
"sX c #B5A78D",
"dX c #B7B28E",
"fX c #ACA394",
"gX c #ADA39C",
"hX c #ABA695",
"jX c #B3A593",
"kX c #B4AC94",
"lX c #B2A59A",
"zX c #B3AB9C",
"xX c #B9AC9C",
"cX c #BAA993",
"vX c #B7B298",
"bX c #A597A7",
"nX c #ADA4A2",
"mX c #B5ABA3",
"MX c #B6ACAE",
"NX c #C2B8A7",
"BX c #C0B097",
/* pixels */
"C 3 | 1XhXpX` <.jX' } XXbXbX X( C c.Q r N t & 9.gXqXjXwXXX5X8X[.d i.4X6X0X;X0.2.nX>X{ t S A v.h.F D ",
"r t r.kX,X.X..q.5X} { oXgX,XP.W H _ D k D N j K.[.3XiXcX8X3X3X3Xr.{ 2.).uXW.+.Q 8X+X#.N S C h.C ! S ",
"P k Q ).>XhX,.D.~.Y Y U.+XK.>.H F h.K A k.^ v K.5X5X5X7X8X3X#X9X*X@.g >.D.;.x ) I.I.;.U F D ! S z c ",
"@.k r b.).hX1.K >.E z *.m.:.W l.F x.v.H k.h.z 1.4X8XXX[.fXjX3X].OX5.( J m S F L ;.>.W Z F F ! x z q ",
"i w m ^ 3.M.+.Z D ~ m r V D C G H ) ) r C / x P y.<X7X:XgXfX!.0.X.j ( J n V Z Z ( ~ M l C B t 5 s < ",
"- 0 k D Q %.B Z C x.^ m M Z M m C z 6 # u =.U W <./.4X'.E.e.,.+.[ 8 m J D ~ n D ^ K Z l m U q < ` 1 ",
"9.<.f k h.x.^ ! H H ^ L H Z V B k 3 : | w.F.%.! @.,.F.q.$.P D D -.V C m ~ ~ m B.L K j.m W %.d ] hXpX",
"vX4Xr.z A A ^ :.N.Z J v.L M U *.w $ | =XmX*X:.W w 3 u >.) K l.g.C H l.m ~ _ Z N.L j.V.H D $.0 ..gXhX",
"oXiXpXb.R [ %.M U W ~ ~ J D D V 0 s uX3X[.kXiXP.y ' iX9.n.N.Z C.~ _ ~ V c./ K C.C.C.V F z.n.0 [ lXfX",
"<XqX<X&X2.& g M V n n n D K / ~ 5 d +X{.f.fXkX|.y @.aX2.~ H G A.D z.J M M K j.k.M ~ ! F l z.T H. X$X",
"rXMX1XkXX.. [ C Z D J J m n m m 5 ] 4XXX{.wXkXoXz 4.$XR K H N.^ K h.x.J M H K A ^ 9 8 x l ^ ~ D.}.4X",
"/.gXrX.X` 7.~.c.J M m k l N S ! < ..4X6X3X8XiX}.z E *.r H g.V.m F k k N k V c.c.) , , v B K G ~ e.K.",
"m.).pXi.a :X@X=.F m c I %.b 4 $ @ ..:X<X6X3XiXQ.x c c c h.F z.l Y 3 % 7 $ $ 7 0 , q 2.&.k S K ~ Z J ",
"r h J.*.$.pX~.R ^ U b j 5 + @ @ 8.y.>X-X6X:X4X_.c x C h.^ l b z > & ` 9.<.` p p 0 r.&X&.r B U y 4 4 ",
"s & @.V _ T.H.c.! t $ o O 2 y.>X.X>X8X].3X;X>X_.q x z.h.D z 4 , O  .^.iXzX8X>X4XL.P.J.I B c 0 p = ; ",
"4X_.e.S K g U k q # +  ._.hX1X<X>X<X<X_.6X:X8X_.0 c h.C S $., X ' '.jX3X<X3X8XkXdXr.@.x F , o  .'.yX",
"OX#X<XXX[ , b v % * tX9XtX#X#X^._.3X(.3X-X2X,X.Xl c ~ N c.Q X | 3X3X@X@X@XuXjXxXmX(._ K =.+ 7.cXjXjX",
"*X8XqXoX+.4 S z =.> d.6X9X[.`.<XrXNXsXuX7X6XyXE.m r B n N t 5 }.jX6X3XiXcXsX8X7X3XI.A.A z 5 a.}.tXjX",
"pXjXwX XR 9 C N l 8 i.(.d.#X].qX[.3X(.^.^.^.L.r.I I ! U r 7 ] 9.[.XX:X6X7X3X-X].K.m.V.g.k +. X'.:X5X",
"iXeXfX X=.m F F m V D.H.5.3.2.r.r.3.5.@.] = & i 7 z k V R 3.P.j s.3XlXeX6X6X7X@X3.W h.k.J R I.4X{.[.",
"wXlXmX Xn.h.K Q I 4 g ( c.C k x V / ^ t < a  .<.,.&.w r R G.&X&.{ ^.fXqX<X7XOXL.W m M K L N @.XX3X:X",
"8XjXkXY.-.K c f O & @.( v.A l 9 l K z.4 j '.kXiXpXF.r k z Y b.V 0 2.!.].6X#Xi.f l ^ J G M M 7 r.5X6X",
"#X8XaXF.Q m , * ; Q.OXR.! ^ 9 @ m.$.q @  .qXwXXXgXe.k n z y D A B Y r.}.yXI.*.z C F _ / M / 7 a 3X3X",
"oXiXaXF.( U % - 2XmX'.Y.b ;.d 2 pXO.@ * y.mXqXoXMX~.! m I Q K A F r +.W.^.#.k F A c ( S.M / 7 + {.3X",
"bX0X&XA.z.U d y.dX#X6X4XL.h $ o.dXa.# XXNXqX8XyXMX|.2.R J H H J G g.C C c.) m ~ C c.D G B.e # 7.5X@X",
"0X}.U.) Z I f ,.xXqX6XqXuXM.` 9.pXw.i W.hX2X,XfXpXL.#.N C K / x.Z c.) F J F F V.H C.J F C.V [ ^.-X-X",
"~.2.:.V l b b o.3XrXnX,XoXe.} t.iX} 5 2. X4XqX:XY.3.U m C H L x.! ) W ~ c.x.F / N.C.^ D H D *.U.9X6X",
"%.y U ( S S S c p.}.}.e.M.#.[ P.oX6 r B H.T.(.t.;.%.W D K J J D k r r B U w 4 4 L L ^ D m V ( ) a.a.",
"k c b z.D S ! m ;.:.;.N / / ~ D.H.w x.G D ( ;.$.W D J L j.x.^ J m r l N 3 O i 9.=.W ^ ~ D ~ / V g g ",
"x x S ^ D m ^ W D W c.K l.N.G _ =.n N.g.H / V B D J j.j.x.C.c.x.D e w 8 % ..u.nXI.D./ H Z W U z k k ",
"q b c Z K M W W S l A.S.H G M ~ / C A l.x.A.Z m C K L j.x.v.) D 6 7 3 % i t.hXhXwXL.~ C D P y e 0 9 ",
"$ t 8 m k.M V P U 4 P C.H C._ E S x.K C.( W r m m H x.v.C.j.M e - } r.{ [ /.kX].bXK.W Z / ( P v 5 < ",
"; ` <.&.B D x q X d o.j T Q S.c k n B Q W N k k w Q ~ J z.S q * | _.uXoX9.` t.#X%Xs t B v.z.b ,   - ",
"'.'./.J.n.) x < 2 w.~.P.@.9 S c y e r N I V V S V V n m Z c , ` :X>XXXpXyXt.9.' 9.` H.D.) 4 < o 8.y.",
"].XXoXY.:.! e , t..X>XaXY.1.%.! v e 9 r m S D J J m V l F c < M.>X'.!.iXNXaX#X!.O.O.T.H.8 + 2 6.Q.XX",
"_.<XaXoX3.U b e .X7X].gXfX*XM.T P y w k B D J F J D v.M D x 1 .XiXXX_.8XkXiXkXkXM.&.D.! $ p u.2X5X5X",
"4XfXmX8XF.%.z 8 d.fX0XtX7X#X3.R v z k B ^ K D Z K J A.B D Q < w.kX7X'.iXkX>X4X].m.W ^ c % 9.].6X5X5X",
"pX3X0X3XI.D.V 4 ,.tXrX0X:X(.4.b g r N ^ v.z.D m K M ~ n F b.f ..4X4XXX7XiX6X8X<XD.K g.l , y.XX#X[.XX",
"@X3X0X9X(.R.A.Z [ |.6X;X8X(.D.k y k m L v.x.W I G m V B k I b s oXaXiX8X;X_.8X0XD.V.k.m # u.6X4X7X7X",
"$X3XtX0Xa.:.~ G 6 ~.8X-X8Xi.*.k x N D L z.^ W W J V Q W 4 , f 5 !.:X:X>X:X>X<X_.D.A.k.B & f.qX@X7X6X",
":X}.3.) K Z L S V H.P.4.n.F S.T c ! ) z.v.v.A A c.m x.4   } b.C 9.8XcX{.!.#X7X2Xc.B.N.8 # [.:XuX3XjX",
"d.9.g B G C V W C.( 5.&.b.l t $ , 3 , , z ! ^ x.z.h.x.t <.yX).Q v ^.tX9X9X4X^.P.c.J G 8 a 3X-X>XxXjX",
"p.h y B K V k P H Z =.g f $ $ s t.e.{ ' [ Y z y k v.v.z t.mX>Xe.Z D.`.=Xf.p.1.=._ V V t { 7XqXrXiX3X",
"%.y V G l.K m W Z H A.3 $ <  ..X8X6X].^.W.F.Y e k z.F z q.*X/.F.H A.3.,.@.E V K / M J B +.W.iXvXzX3X",
"w r G G g.k.x.c.g.v.~ + ] !.<XzX{.3X9XpXpXL.T e f 7 3 e T m.D.! C C._ m l Z A ^ l.Z K S U >.H.Y.8X'.",
"g ( V Z K z.V.J S c.B # t.mXgX>X5XcXxXxXdXJ.c < # # i @.v e A Z x.A.^ m C A H c.Z.G K K x.h.Q y  . .",
"~.L.f P Q W n.9 T %.q s ].1X1XXXsXtXkXxXdXY.Y 8 & y._.oXP.y Z V.S._ v q z l D C.N.K ) L Z.l.j.r t.'.",
"zX{.* j ;.f %., M.&.$ d hX1X,XuXcXtX9XfXhXP.f , ,.vXnXeXuX1.k J H 8 @ 2 O.b m x.H D -.^ l.H Z.) !.4X",
"S 8 O }.#Xe.& < kXM.. .X<X<XXX7XgX$X&XE.F.=., = `.:XcXcX{.}.I.f 8 X 6.3X[.p.j $ o 1.t m D k.C.L J D ",
"x 3 * :XiXW.i ` vXE.. 2X>X>XXX7Xd.1.:.h v l < = -X>XBXcX[.#X~.g q % d.xX8X/.[ + ] Y.T x m L N.j.J D "
};
