/* XPM */
static char *cfa8efb3d3a44a2c9a29103c295d2b44kCENTR5jpfOOmEh0[] = {
/* columns rows colors chars-per-pixel */
"50 50 228 2 ",
"   c #221C00",
".  c #1C2200",
"X  c #292707",
"o  c #2B3300",
"O  c #373905",
"+  c #37381A",
"@  c #242526",
"#  c #2A2A26",
"$  c #282A29",
"%  c #3A3527",
"&  c #30302B",
"*  c #383529",
"=  c #363835",
"-  c #423A26",
";  c #453D29",
":  c #3B4107",
">  c #3E4612",
",  c #3E4231",
"<  c #464B07",
"1  c #4B5505",
"2  c #555C00",
"3  c #555A0D",
"4  c #595D0D",
"5  c #484819",
"6  c #4D5319",
"7  c #5A5E16",
"8  c #58591A",
"9  c #5B6200",
"0  c #5C6806",
"q  c #5D620D",
"w  c #5D6417",
"e  c #626B00",
"r  c #606509",
"t  c #636B0D",
"y  c #686D0D",
"u  c #647000",
"i  c #6A7300",
"p  c #6D7900",
"a  c #6B730D",
"s  c #68740D",
"d  c #727B00",
"f  c #71760D",
"g  c #737B0D",
"h  c #656918",
"j  c #6D7316",
"k  c #6A711A",
"l  c #717716",
"z  c #737C16",
"x  c #73791C",
"c  c #4C482B",
"v  c #534A29",
"b  c #5C4C29",
"n  c #4E5124",
"m  c #5C5D25",
"M  c #575529",
"N  c #464638",
"B  c #534D37",
"V  c #595337",
"C  c #614F28",
"Z  c #64552B",
"A  c #69592B",
"S  c #745D29",
"D  c #645D37",
"F  c #5A622E",
"G  c #646725",
"H  c #74622E",
"J  c #7C632B",
"K  c #6C7223",
"L  c #6B722B",
"P  c #757A23",
"I  c #73742D",
"U  c #767928",
"Y  c #696839",
"T  c #75753A",
"R  c #777938",
"E  c #555547",
"W  c #5C5D45",
"Q  c #5A5A54",
"!  c #5F5D54",
"~  c #676749",
"^  c #6E734B",
"/  c #747348",
"(  c #7D7D4B",
")  c #666755",
"_  c #797A57",
"`  c #747267",
"'  c #797771",
"]  c #82662A",
"[  c #876D2C",
"{  c #8B722B",
"}  c #98772C",
"|  c #876F30",
" . c #937B33",
".. c #A37D2B",
"X. c #807E4D",
"o. c #827D55",
"O. c #837F66",
"+. c #837E79",
"@. c #7B8607",
"#. c #76810D",
"$. c #7C830D",
"%. c #7B8316",
"&. c #7B851A",
"*. c #7C8426",
"=. c #7F8135",
"-. c #7C8047",
";. c #868E15",
":. c #828636",
">. c #8C8D31",
",. c #A1812F",
"<. c #AC842C",
"1. c #B4892C",
"2. c #BD902E",
"3. c #A68934",
"4. c #B29134",
"5. c #C9972D",
"6. c #D69F2D",
"7. c #C99C31",
"8. c #DAA32D",
"9. c #D1A837",
"0. c #D9A933",
"q. c #E2A72C",
"w. c #E4AA2D",
"e. c #EAAD2D",
"r. c #EEB02E",
"t. c #F3B42F",
"y. c #E4AC33",
"u. c #E3B233",
"i. c #EBB533",
"p. c #EDB935",
"a. c #E5B63B",
"s. c #E4BC3D",
"d. c #EBBA3C",
"f. c #F6B730",
"g. c #F3BD35",
"h. c #FEBD31",
"j. c #F5BE39",
"k. c #EBC13E",
"l. c #FEC335",
"z. c #F5C138",
"x. c #FEC638",
"c. c #FFC93A",
"v. c #FFD03E",
"b. c #878948",
"n. c #888957",
"m. c #919152",
"M. c #93935A",
"N. c #898466",
"B. c #918E62",
"V. c #979468",
"C. c #8A8375",
"Z. c #938C75",
"A. c #9A8E7C",
"S. c #989378",
"D. c #9B937C",
"F. c #A49E6E",
"G. c #A29976",
"H. c #A19C7B",
"J. c #A4A36A",
"K. c #ACA67A",
"L. c #D6B340",
"P. c #E6BD43",
"I. c #E9BB45",
"U. c #EABC47",
"Y. c #EDBE51",
"T. c #EBC448",
"R. c #F3C943",
"E. c #FDCF41",
"W. c #FFD243",
"Q. c #FDD34B",
"!. c #EDC758",
"~. c #F4CB5A",
"^. c #FAD457",
"/. c #F3CC64",
"(. c #F7D467",
"). c #FDD565",
"_. c #F3D26C",
"`. c #F6D572",
"'. c #FADA76",
"]. c #F9DB7C",
"[. c #978D84",
"{. c #918989",
"}. c #9D9382",
"|. c #989487",
" X c #9D958A",
".X c #9F9598",
"XX c #A39582",
"oX c #A49B84",
"OX c #A69A88",
"+X c #A49B8A",
"@X c #AA9E8B",
"#X c #B29F8F",
"$X c #A29693",
"%X c #A59B93",
"&X c #A99C94",
"*X c #AAA586",
"=X c #ABA28B",
"-X c #B5A38D",
";X c #ACA293",
":X c #ABA595",
">X c #AEA39C",
",X c #B3A797",
"<X c #B7B49A",
"1X c #A597A7",
"2X c #B3A8A6",
"3X c #BBB1A2",
"4X c #C3B49D",
"5X c #FADD82",
"6X c #FCDF88",
"7X c #FEE284",
"8X c #FCE28B",
"9X c #FDE595",
"0X c #FFE79A",
"qX c #FFE89D",
"wX c #FFEAA4",
"eX c #FFECAC",
"rX c #FFEEB3",
"tX c #FFEFB9",
"yX c #FFF0BE",
"uX c #FFF2C3",
"iX c #FFF3CB",
"pX c #FFF5D4",
"aX c #FFF6DA",
"sX c #FFF8DF",
"dX c #FFF9E5",
"fX c #FFFAEB",
"gX c #FFFCF3",
"hX c #FFFFFE",
/* pixels */
"i < B .X:X*X5 ~ :Xv M }.1X1XS.x i &.k 9 0 3 O ~ :X&X;X#XD.OX@XA.6 ( oX X$X[./ T 2X XZ 3 s p &.#.s s ",
"2 3 / ,X XS.n -.*XM m D.>X Xb.j g %.s 9 g w 8 N.A.XX@X,X@XXXXXXX/ F T V.*XN.G K =XG.L q s u #.u s s ",
"h q k V.}.:XY :.V.w w M.K.n.U f p #.g p $.g w B.oX=XoX X@XXXXXOXK.G w =.:.U t l B.M.I s s s s s 0 9 ",
"G 2 9 *.V.=XR g | h q K =.I l @.p &.&.p $.#.T -.C.' ` ` ' ' {.|.*X( x a e y y #.I U k i g z k w q 1 ",
"> 2 0 z =.n.w i s l e 9 y a i d g %.z / W V D | >.3.3.3.3.,. .H V B ~ b.P s j p z z i 0 i t 1 1 6 > ",
"X 1 9 s K K t i i #.f e i i e e *.~ V  .9.k.c.v.E.c.E.v.E.c.W.W.z.u.4.H B _ *.s z f i 9 u h 5 < 5 + ",
") ~ 7 9 #.%.z j d g g g g i P ~ D 4.k.W.c.c.c.c.c.E.c.W.W.W.E.E.v.v.c.x.9.| B b.>.g #.i s K 6 6 ,X=X",
"4XoX/ q p p g U ;.i f ;.#.( B 3.d.c.c.c.c.c.c.v.E.E.W.W.W.W.W.W.Q.W.W.W.c.x.7.m W >.;.z s K 6 n >X:X",
"G.=X*X*.K 8 K e h j l f ^ Z 9.c.c.c.c.c.c.c.v.W.Q.W.W.W.W.W.W.W.W.W.W.W.W.v.v.k.| N b.g #.*.1 M :X,X",
"XX.X XJ.T O 7 i y y r W H p.x.c.c.c.c.c.c.c.W.W.W.W.W.Q.W.W.W.W.W.Q.W.W.W.W.W.v.l.,.* -.0 z h b.S.F.",
">X2X.X<XD X 8 e y f W S g.x.c.c.c.c.c.c.c.W.W.Q.W.W.W.Q.^.^.^.^.R.W.W.Q.W.W.W.W.c.x.,.* -.#.l :.S.oX",
"Z.>X&XZ.; ! V.:.g ~ Z g.l.x.v.v.v.c.c.c.c.W.W.W.W.Q.).7X0XqXqX9X7X_.R.R.W.W.W.W.W.c.z.[ = b.f g ( n.",
"=.V.*XX.5 XXH.P R c 0.x.l.W.W.W.Q.W.v.c.c.v.Q.W.Q.'.wXiXfXgXgXfXiXeX5X!.k.v.W.W.Q.v.c.i.b N g f i f ",
"9 8 m.K G *XB.j * 3.c.h.c.W.W.W.W.W.v.c.c.c.v.W.(.wXdXhXgXsXuXuXpXdXiX9X_.T.v.W.W.W.c.x.5.& ^ 7 < < ",
"5 O L y P M.b.W A j.h.h.W.Q.W.W.Q.W.c.c.c.x.c.^.8XaXhXgXrX8X'.`.8XqXiXpX0X/.k.W.W.W.v.c.l.J $ 6 + % ",
" XC.X.s g r I * 7.x.h.l.c.Q.W.W.v.c.c.c.c.c.c.^.wXgXhXtX].T.s.s.P.!.8XyXpX9X!.k.W.Q.v.c.c.7.* Q Z.K.",
"F.D. XD.8 : B Z l.h.h.l.c.c.c.c.c.c.c.c.c.c.x.(.rXgXfX9X!.s.s.s.s.s.!.8XpXyX].T.k.W.W.c.c.h.A = <X#X",
"K.=X:X}.G F & 3.l.l.h.l.c.c.c.c.c.c.c.c.c.c.z./.tXhXdX8XT.s.k.R.R.R.s._.eXdX0X!.k.W.v.c.c.l.<.@  X,X",
"*X;X&XD.I W % u.l.l.l.l.c.c.c.x.c.c.c.c.x.c.z.~.eXgXdX8XT.k.W.W.W.W.R.T.9XdXyX_.k.k.c.c.c.l.8.+ ! %X",
";X>X) v c & Z g.l.l.l.c.c.c.c.x.x.x.c.c.c.x.x.T.9XfXgXwX!.u.v.W.W.W.W.T.8XsXpX].k.k.c.c.c.c.f.b = &X",
"@X{.| R.i.{  .l.l.l.l.l.x.c.x.c.c.x.c.x.c.c.x.p.].uXhXiX].s.p.c.v.W.v.^.0XfXaX5Xs.u.x.c.c.x.h.J $ &X",
"OXN L.c.h.w.8.f.l.l.h.c.c.c.c.x.x.c.c.c.x.c.c.p.!.qXfXgXrX].T.z.x.c.c.].rXgXaX].s.i.x.c.x.x.l.} @ {.",
"}.v j.h.r.e.r.h.l.x.l.l.x.c.x.c.c.c.x.x.c.c.x.l.a.5XiXhXgXtX8X_./.).].wXdXhXuX`.u.i.c.c.x.l.l.<.@ +.",
"D.b g.f.e.e.e.t.l.l.l.l.c.c.c.c.x.c.c.c.c.c.c.c./.0XdXgXhXgXsXyXeXeXiXfXhXfXqX!.u.i.c.c.x.x.l.2.$ ' ",
"1XB 0.e.e.e.e.r.l.x.h.x.c.x.x.c.c.c.x.c.c.c.c.).0XaXfXeXrXsXgXhXgXhXhXhXgXrX`.a.u.g.c.l.c.l.h.5.# +.",
"$XO.} e.e.e.e.e.h.x.h.l.c.c.c.c.x.c.c.c.x.c.).0XaXfXwX`._.9XtXaXdXfXfXiXwX].T.u.u.l.c.c.c.l.l.2.# +.",
"B.T c A [ ] 5.r.h.l.h.l.c.c.c.c.c.c.c.c.c.).0XaXdXwX`.a.u.T._.].9X9X8X]./.a.u.u.z.c.c.c.c.l.h.1.@ {.",
"K 4 h / ; # 2.r.t.h.h.h.x.x.c.x.x.c.c.c.).0XsXdXwX`.a.u.u.u.u.a.s.T.T.u.0.u.i.i.x.c.c.c.l.l.l.} $ A.",
"0 9 0 P ^ @ <.e.r.h.h.h.l.c.c.x.c.x.c.).0XaXdXwX_.a.u.u.j.j.p.u.u.u.u.u.u.i.l.x.c.x.c.c.c.h.h.] = -.",
"0 w t #.T @ [ i.e.f.h.h.l.x.c.c.c.c.).0XaXhXtX`.a.u.u.z.x.c.c.z.z.z.i.z.z.x.x.c.c.c.c.x.l.h.h.b N U ",
"1 w 9 s x @ A e.e.t.h.h.h.l.c.c.c.).0XaXhXhXuX].U.u.g.c.c.c.c.c.x.c.c.c.c.c.x.c.c.x.x.c.l.l.0.= ) F ",
": 3 1 i $.@ ; 6.e.e.h.x.l.h.c.c.).0XaXhXhXhXgXtX5XU.g.c.x.c.c.c.c.c.c.c.c.c.c.c.x.c.x.x.t.l.<.@ ( 5 ",
", c F L t n $ <.r.r.f.c.c.l.l.).0XaXhXhXhXfXuXrXwX5XU.g.c.c.c.c.c.c.c.c.c.c.c.c.c.c.l.l.r.<.- , E X ",
"N.Z.V.m.*.g @ A e.e.u.x.c.x.).0XaXhXhXhXgXrX].6X0X6XU.y.z.c.c.c.c.c.l.c.x.c.c.x.c.x.l.h.t.J @ ) W _ ",
"S.D.S.V.=.j @ % 7.e.e.p.x.j.].yXfXpXfXhXtX].U.y.`.U.y.u.f.c.x.c.c.c.c.c.c.c.c.x.c.l.l.h.f.] & ' N.G.",
"Z.|.:XF.R k 0 @ J r.e.e.f.i.!.9XqX6XeXaXqXY.q.q.y.w.u.p.x.c.c.c.x.c.c.c.x.c.c.x.c.l.l.l.8.% ' |.@X@X",
"oX&X3X#Xb.G q @ % ..8.e.e.e.q.Y.Y.U.`.wXeX6XU.w.q.q.i.l.c.x.x.c.c.c.c.c.x.c.l.x.h.h.h.f.] , |.*XOXXX",
"*XOX$XXXB. .y < @ # b 8.e.e.q.q.q.q.y.`.0X6XU.w.t.t.l.c.x.c.c.x.c.x.c.l.l.l.l.l.h.h.f.2.% C.D.S.A.A.",
"H.XX$X$XV.m.*.i Z @ c q.e.e.e.q.e.e.e.y./.U.w.w.f.l.c.c.c.c.c.x.x.l.l.l.l.h.h.h.h.r.8.c ~ ` +XoX+X@X",
"F.XX&X$Xn.I z d < _ * <.e.e.e.e.r.f.t.w.q.q.q.e.h.l.l.l.l.l.l.l.l.h.l.h.h.h.h.f.t.q.Z E > +.$XXXOXoX",
" XZ.T x g i g a y b.W - 2.e.e.e.e.e.t.f.e.e.r.h.h.h.h.l.h.h.h.l.l.l.l.h.h.f.r.r.q.S B G O A.}.*XOX#X",
"O./ 7 y f i a y ;.P I n - 1.e.e.e.e.e.f.f.f.h.h.h.h.h.h.h.h.h.h.h.h.h.t.f.e.e.8.S @ n.1 5 |.[.[.,X,X",
"X.8 4 y g i 2 k d i P 4 n % } e.e.e.e.r.f.h.f.r.t.t.t.t.f.t.r.r.r.e.e.e.e.e.5.b - [ D 3 M +X%X:X=X}.",
"K 4 s g g f e j i d :.< O N @ S 5.e.e.e.r.r.r.e.e.e.e.e.e.e.e.e.e.e.e.e.w.} ; & ,.g.} L G B.oX<X,XOX",
"2 2 i d @.@.%.%.@.#.z o 8 N.[.= ; [ 6.e.e.e.e.e.e.e.e.e.e.e.e.e.e.e.q.<.M N n._ { 5.A l j U b.M.@XZ.",
"4 x y i g #.;.j s &.0 O _ >X2X&X+.= - S 1.8.w.e.e.e.e.e.r.r.e.q.5.} b N -.*.g &.;.{ g g $.g z 4 V B ",
"B.m.8 h x s &.1 G K 1 < A..X$XD.-X3X XQ = ; b ] } ..<.<...[ S v N E _ T w u a &.;.#.g g ;.@.#.2 _ Z.",
">XA.X 8 L q K : -.L O 5 ;X.X X*X-X#X%X2X3XA.) E E Q E E Q ) ~ n.>.w o , F w e @.g s P p ;.@.;.x N.oX",
"y 3 X Z.H./ > > ,Xn.  Z.A.}.D.OX:XG.J.n.b.*.: + |.;X4X4XXXZ.M.8 1 . V  XD.o.6 O o L 3 0 g @.;.g i f ",
"q < O D.@XN.5 5 <XO.X Z.D. XD.=XN.R I 8 8 0 : + D.D.4X,XA.H.B.7 1 O N.2X@XV.M o M M.h w i g ;.$.f a "
};
