/* XPM */
static char *_b3b1584101c4c8ae2c943d34309d713TjYcduCssF9P9t8v[] = {
/* columns rows colors chars-per-pixel */
"50 50 238 2 ",
"   c #1C1C00",
".  c #1E1916",
"X  c #25130B",
"o  c #2B160D",
"O  c #28180A",
"+  c #32180E",
"@  c #2A1712",
"#  c #241A16",
"$  c #2D1A13",
"%  c #251E19",
"&  c #2A1E1B",
"*  c #341C13",
"=  c #361D17",
"-  c #391E15",
";  c #292905",
":  c #2C3300",
">  c #323A00",
",  c #383807",
"<  c #26221C",
"1  c #2C221D",
"2  c #3B2116",
"3  c #34221C",
"4  c #3C231A",
"5  c #37381A",
"6  c #2D2622",
"7  c #2D2725",
"8  c #312621",
"9  c #352A24",
"0  c #3C2A23",
"q  c #362C28",
"w  c #34322D",
"e  c #3A332D",
"r  c #3D3632",
"t  c #3E3A34",
"y  c #3F3A38",
"u  c #42251B",
"i  c #45291E",
"p  c #4A2B1E",
"a  c #432B23",
"s  c #4C2D22",
"d  c #502E23",
"f  c #463727",
"g  c #4E3025",
"h  c #45332B",
"j  c #4A342C",
"k  c #533124",
"l  c #54362B",
"z  c #53392D",
"x  c #5C392B",
"c  c #433A34",
"v  c #473A34",
"b  c #433D39",
"n  c #533D33",
"m  c #5B3D33",
"M  c #633C2E",
"N  c #693F2F",
"B  c #643E31",
"V  c #693F30",
"C  c #3B4300",
"Z  c #394107",
"A  c #3E412E",
"S  c #464C00",
"D  c #474B07",
"F  c #454B0D",
"G  c #4C5500",
"H  c #4B5609",
"J  c #555C00",
"K  c #565C00",
"L  c #555B0D",
"P  c #595D0D",
"I  c #424316",
"U  c #494A1A",
"Y  c #4D5319",
"T  c #5A5E16",
"R  c #565819",
"E  c #5B6300",
"W  c #5E6A00",
"Q  c #5A660B",
"!  c #5D620D",
"~  c #5D6116",
"^  c #5E6819",
"/  c #636B00",
"(  c #656808",
")  c #636B0D",
"_  c #686D0D",
"`  c #637100",
"'  c #6A7300",
"]  c #6C7900",
"[  c #64700D",
"{  c #6B730D",
"}  c #6D7A0D",
"|  c #717B00",
" . c #70760D",
".. c #777C09",
"X. c #737B0D",
"o. c #646A16",
"O. c #65691A",
"+. c #6C7315",
"@. c #6B721A",
"#. c #717616",
"$. c #747C16",
"%. c #71751C",
"&. c #747B1C",
"*. c #797D1B",
"=. c #494527",
"-. c #505026",
";. c #555627",
":. c #5D5D24",
">. c #464232",
",. c #45423C",
"<. c #4B423D",
"1. c #5C4336",
"2. c #5B453A",
"3. c #544B3D",
"4. c #5A483A",
"5. c #595538",
"6. c #65402F",
"7. c #654134",
"8. c #6D4332",
"9. c #634A3E",
"0. c #714433",
"q. c #5C6337",
"w. c #656725",
"e. c #6C7224",
"r. c #66702A",
"t. c #727524",
"y. c #767B28",
"u. c #686838",
"i. c #6C7138",
"p. c #767835",
"a. c #74753A",
"s. c #4C4641",
"d. c #4D4942",
"f. c #524B45",
"g. c #554B46",
"h. c #5A4C45",
"j. c #4E5241",
"k. c #595746",
"l. c #55524B",
"z. c #5C544C",
"x. c #5D5C52",
"c. c #5C5955",
"v. c #644E41",
"b. c #684F42",
"n. c #665143",
"m. c #6B5345",
"M. c #6D5649",
"N. c #66594A",
"B. c #725747",
"V. c #745B4C",
"C. c #795E4E",
"Z. c #655C55",
"A. c #695C56",
"S. c #775D51",
"D. c #5E6154",
"F. c #676646",
"G. c #75664E",
"H. c #7C614E",
"J. c #6D724F",
"K. c #767546",
"L. c #7D7C4D",
"P. c #636453",
"I. c #696756",
"U. c #656459",
"Y. c #6A635C",
"T. c #7D6353",
"R. c #766659",
"E. c #777757",
"W. c #6C6A63",
"Q. c #756862",
"!. c #787664",
"~. c #807E4D",
"^. c #816553",
"/. c #866958",
"(. c #867859",
"). c #91725E",
"_. c #877863",
"`. c #937362",
"'. c #857E78",
"]. c #798407",
"[. c #7C830D",
"{. c #7A8216",
"}. c #79841A",
"|. c #7D8426",
" X c #7F8437",
".X c #7D8149",
"XX c #7C8354",
"oX c #818B0D",
"OX c #838B18",
"+X c #879212",
"@X c #858B28",
"#X c #8C942F",
"$X c #858A37",
"%X c #868949",
"&X c #8E924F",
"*X c #888758",
"=X c #8D8C5B",
"-X c #929359",
";X c #8A8567",
":X c #908E63",
">X c #979468",
",X c #8D8774",
"<X c #938C75",
"1X c #968A79",
"2X c #9A8D7C",
"3X c #989377",
"4X c #9D9973",
"5X c #9B937D",
"6X c #A49E6E",
"7X c #A39A78",
"8X c #A19B7B",
"9X c #A4A469",
"0X c #ACA67A",
"qX c #9B8F83",
"wX c #9D9382",
"eX c #9D9885",
"rX c #9D9589",
"tX c #998D91",
"yX c #9F9598",
"uX c #A29582",
"iX c #A49B84",
"pX c #A69988",
"aX c #A49B8A",
"sX c #A99E8B",
"dX c #B29F8F",
"fX c #A59994",
"gX c #AAA585",
"hX c #ABA28C",
"jX c #B2A98C",
"kX c #ADA294",
"lX c #ABA595",
"zX c #AEA49C",
"xX c #B3A593",
"cX c #B5A998",
"vX c #B7B298",
"bX c #A597A7",
"nX c #B1A7A4",
"mX c #C0B097",
/* pixels */
"' S 3.yXlXgXU F.xX-.;.wXbXbX7X%.' }.&.K ) L , F.fXfXdXsXwXpXsX2XU ~.sXiXfXqXG.p.zXeXw.L [ ] }.].} +.",
"K L K.cXrX3XY L.iX;.:.uXzXrX%X+.} $.} E } ) R *X2XpXxXcXsXuXpXuXK.:.a.>XgX;Xw.e.sX5Xi.~ [ W ].` { [ ",
"o.P @.>X5XlXu.$X:XT O.-X8X*Xp.X.] [.X.] [.X.o.*XsXiXiXpXsXuX2XsX0Xw.~ y.$Xy.( $.:X-Xt._ } } } [ ! J ",
"w.K E |.>XlXa.X.$XO.P t. Xy. .].| {.{.| [.].P i.iXdX8X1XxXzXuX2X7Xr.%. .E O._ [.y.y.+.' } }.[ O.Q H ",
"I K W $. XXXo.' _ #./ K _ { ' | X.$.#.E ` {.) o.R.wXrXwXkXkX;XG.5.R #.{ / _ { ] #.#.' E ` _ G F Y C ",
"; F E { %.r.) ' ' [.X./ ` ] e.u.5.P.N.x.l.j.x.x.D.W.W.!.W.P.F.u.:.G ( } { { / X.#. .] E ` o.D F U A ",
"G.F.R E X.{.#.+.| X.X.*.I.z.g.d.7 ,.,.f.,.q ,.>.d.d.3.s.<.w t 3.s.l.F.t.#.#./ [...X.[.' } t.Y ;.lXhX",
"vXgXK.) ] | X.y.oX] i.l.d.v q 8 # 1 1 1 < # 1 1 1 1 1 1 1 # % 1 9 b d.l.J.%X] oX{.[.OXX.[ r.F -.zXlX",
"4XhXgX|.@.R e.` O.F.q y 8 $ 8 0 0 h h h h a X o $ 0 h h h j h a 8 $ & c b k.$XOXOX{.' X.[.|.H ;.zXzX",
"rXyXrX9Xp., ~ ' u.z.w # j v.B.M.n.V.V.M.m.1.o o 4 n 2.2.1.M.V.B.m.n j & < d.I.#X/ } #.} W $.O.%X6X6X",
"zXnXyXvXu.< :.y.f.b & j h.V.^.^.^.V.2.V.T.V.$ o 4 m.T.n.b.^.T.C.B.2.m.1.1 r g.L.*.K G Q W $.#.$X5X4X",
":XnXfX<Xf x.:XF.s.7 1./.C.`.`.`.`./.V.).`.T.* o 4 T.`.^.^.`.`.`.`.^.^.`.9.1 s.Z.%XC C ~ ) X. . .L.*X",
" X>XgX~.U uXiXl.y # n 9.9.9.m 1.1.n z z z j o O - n 2.m 1.1.1.1.1.7.4.9.n # y l.J.D i.e.E ` X. .` } ",
"K :.&Xt.w.hX!.c 6 X X o + o X o X o $ $ o o X o = o o + * @ X o o * $ X o X q f.I..X9Xe.E [ +.P S S ",
"U , r._ y.-XA.b 6 X O 3 - - s s i * 4 4 + o X O = * u s u = - s i 2 * 4 4 $ 6 s.!.-X&X^ Q E H U 5 e ",
"eX,XL._ X.o.I.<.6 X o * - k d d k z * * + O X o = + * - * d k d l l 4 * 4 o % t z.;Xr.Q $.C ; 5.<XgX",
"6X5XrX5X:.F Y.s.3 = i + s d g g d k i 2 p - o o 2 4 k * u p d d d k d O u 2 < r d.1X|.].&.: N.cXcXlX",
"0XhXfX4Xw.Y U.s.8 u d * s s s g k d p 2 x s o O 2 i N - u d s k d p s 2 g 4 1 ,.Y.!. X` ! F (.3XkXxX",
"jXxXfX7XO.O.P.b 1 4 M * - u s g k d 2 u M p o o = a 7.i * l k d p i u * x u 1 b U.!.#X].E w.7X1XwXpX",
"sXzXzX4Xy.%.U.s.7 * s * o i s s s p + - u * X O * * i 2 o 4 s s k s * * i + 1 <.W.XX}.]. .O.=XiX1X2X",
"fXzXvX6X|.}.l.A 1 2 M x * O + * 4 o 4 V x i o o = u k B 4 O * + = * * M l 4 < t l.E.' ....o.w.5X7XuX",
"sXzXcX-Xy.} 3.t & u 0.8.8.k - + 2 g V 8.8.d o o - a x V 8.d 4 + - s 8.8.M 4 # r ,..X .' ' ( F G.pXpX",
"7XsXkX%X%.[ D.g.7 8 z z z z l j z z l l l a X o = 3 a l l z z d j z l l s = 6 s.W.XX}.*.( ..D U uXuX",
"5XhXxX%X%._ d.w % j T.T.T./.^.T.G.v Q.Q.R.Z.< o 0 Z.Q.Q.Q.b S.T.T.T.T.T.R.c 6 d.U.XX&.@X' [.S : 1XuX",
"bXfX9X@X$.o.k.,.& v T.^.V././.C.S.<.Q.A.A.Q.& o 3 Q.A.S.Q.v S.C.H././.H.H.<.6 s.U.=X{  .OXK , A.7XpX",
"fX<X&X&.{ _ U.d.6 e m.v.9.n.m.9.2.v z.g.h.g.& o 8 g.s.z.h.c v.v.9.m.m.4.4.h < <.Y.-X . .OX_ :.;XqXqX",
"=Xa.y.+.W ) P.j.7 % 8 8 3 9 9 9 9 7 h.b <.g.# @ 4 s.n b h.6 8 9 9 9 9 0 8 < % w ,.&XX.{  .{ t.-XpXsX",
"e.P O.#.) ) U.f.8 = l V N 6.N 6.B 7 v z.z.j . + 3 e f.Z.n 6 m V M N V V M 4 1 ,.d.#XX.} / _ #.t.(.(.",
"W E Q &.{ _ U.f.8 u V V V V 0.V V 9 r c c e . o 8 w r c r 7 B 0.0.0.0.0.8.u 6 s.k..X{.} {  .#._ T T ",
"Q Q [ $.} / P.d.3 @ s d k d k d s & & . % & . o 1 & # . & & a l k k k k d * 1 d.c.-X$.X.{ +.+./ E K ",
"H ^ K } ].+.P.d.8 = k M x d x k k l s d k - X @ = u l l k k k k k k k d s * 6 s.c.>X#.' { O.~ K G L ",
"Z L G ` [.}.P.d.3 u V 0.V V V V V V 0.V V d o @ = s V 0.0.V 0.0.0.0.0.0.V u 6 d.D.3X{ ] {.%.~ T F Z ",
"e =.u.r.[ .XA w < 4 M 8.8.8.8.8.8.8.8.8.V l o @ * s V 0.8.8.8.8.8.8.8.8.M 4 6 s.c.u.R ) {.{.^ C   ; ",
",X:X>X&X%XP.D.<.1 2 k 6.N 8.N N V V B B l a X + * u x B 8.7.N N M N B 6.k 4 1 s.c.q.%X$X$.S C ; F.R.",
"3XwX5X-X%XU.Z.s.1 o 2 2 u - - u - $ a v.S.S.@ o - M.S.b.h * * 4 2 2 2 2 * X & s.l.J.-X$XH : t 5.;X7X",
",XwXlX0X*XU.Z.y 8 O 3 u s s s s 0 n.`././.S.* o a V.T.).`.M.a a s k g 4 * @ # w b XX$X@.> A E.eXpXhX",
"iXfXcXdX>XY.Z.y 8 @ @ * u a a 1.).).H.1.M.V.* o - M.m M.T.`.`.4.4 0 i * * o & ,.c.E.X.E C F.3XiXpXuX",
"gXpXyXpX4XY.c.s.6 # $ 6 h m.T.S.^.^.^.T.H.M.$ o 4 m.C.^.^.T.H.T./.M.c 3 $ @ 6 ,.P.J.].W > E.2X7X2X2X",
"7X7XyXfX6X!.y q % h.T.T.)./.S.2.H.^.^.^.^.V.* o 0 m.^.^.^.^.M.2.T./.`.T.T.h.7 t Z.E.oXW > !.aXiXaXaX",
"7XpXfXpX(.XXU.s.7 h.n.4.H.T.T.T.^.^.^.B.H.m.o o - b.^.B.T.^.^.^.^.^.V.n H.n.6 r ,.;XoX_ , '.fXuXaXpX",
"rX>Xa.&.} XXZ.s.6 c V.^.^.^.^.^.^.C.T.^./.1.O $ 3 z /.^.H.G.C.^.^.^.^.^.S.2.7 y <.#XoXG , 3XwXgXpXdX",
"_.G.~ ) } L.U.s.6 0 n V.^././.m.1.1.1.9.M.z O o = j M.m.1.1.1.v././.^.H.n w 7 d.D.#X| G h 8XqXwXvXxX",
"L.R P _ X.%Xz.d.c >.3.5.Q > > U P.h.h.g.3.3.f e f 3.k.3.k.x.Z.h.5.z.h.g.d.s.r A E.&.[ L ;.aXfXlXhXwX",
"e.~ [ X.X.X./ %.' | |.S , , 5.3XpXpXeX2X4X=Xp.@.e.#X|.t.*XgX8X~.].#X*XE.L.K.$X$X|.' } ) w.:XaXvXxXiX",
"G K | | ].[.{.{.].[.$.: -.;XaXnX1X7XdXsXgX*XO.G R S S K O.p.$X@.( {.}.) ` ] ] $.].` X.{ +.y.%X-XhX<X",
"( e._ ' ..{.+X .{ }.Q > E.cXzXeXdXxXcXmXjX&XQ C : > U w.~ K X.] {.@X{.` ` ] } *.+X] X.X.[.X.#.P 5.4.",
":X=XR o.&._ |.G ^ e.H F 3XyXfX5XdXxXcXvXvX-XO.G 5 E.'.7X%X! { OX@X&.L H Q W _ OXoX..$.].+X].[.K E.<X",
"zX1X, Y r.L %.Z .Xr.> Y lXtXrXgXxXdXfXlXjX*XR C i.cXnXfXiXi./  .| G : A 5.O./ oXX._ y...]...+X*.;XiX",
"_ H ; 1X8XL., Z vXXX  ,XwXwX5XpXzX9X9X=X.X|.C 5 <XwXvXxX1X2X=XR G   k.uX5XL.Y , ; i.Q / } [.oX[. . .",
"! S , wXsX;XI -.vX;X; <XwXeX5XhX_.a.p.R ~ W Z 5 2XeXmXxX2X7X-XT G Z ;XnXhX:X:.: ;.-XO.Q ` X.[.oX ._ "
};
