/* XPM */
static char *_304c18fa21d443ad65a135051c153cematFifAM4NLTMqkT[] = {
/* columns rows colors chars-per-pixel */
"50 50 239 2 ",
"   c #171603",
".  c #11110B",
"X  c #16150C",
"o  c #282803",
"O  c #2C3200",
"+  c #283407",
"@  c #333A00",
"#  c #3A3C00",
"$  c #373609",
"%  c #2B2A17",
"&  c #383816",
"*  c #383728",
"=  c #3C3C33",
"-  c #433E05",
";  c #403D1C",
":  c #403B22",
">  c #3B4200",
",  c #3A4209",
"<  c #3D4722",
"1  c #434600",
"2  c #454C00",
"3  c #4A4E00",
"4  c #43440D",
"5  c #464C0D",
"6  c #4B4D0D",
"7  c #514D0E",
"8  c #4C5500",
"9  c #4C5608",
"0  c #535404",
"q  c #555C00",
"w  c #595D01",
"e  c #545A0D",
"r  c #5A5D0D",
"t  c #434216",
"y  c #484919",
"u  c #4D4E1B",
"i  c #4C5318",
"p  c #545415",
"a  c #5B5C16",
"s  c #565718",
"d  c #5B5C1C",
"f  c #625E0A",
"g  c #625E12",
"h  c #5D6300",
"j  c #5D6A00",
"k  c #5B670A",
"l  c #5D620D",
"z  c #5D6216",
"x  c #5E6916",
"c  c #5E641D",
"v  c #636B00",
"b  c #686801",
"n  c #62630C",
"m  c #636B0D",
"M  c #686C0D",
"N  c #736F0C",
"B  c #647100",
"V  c #6A7200",
"C  c #6C7900",
"Z  c #64700D",
"A  c #6B730D",
"S  c #6D7A0D",
"D  c #727B00",
"F  c #797B04",
"G  c #70760D",
"H  c #737B0D",
"J  c #646B16",
"K  c #66691A",
"L  c #6C7216",
"P  c #6A731A",
"I  c #717616",
"U  c #737C16",
"Y  c #7A7C15",
"T  c #71751C",
"R  c #747B1D",
"E  c #797D1C",
"W  c #444622",
"Q  c #4C4928",
"!  c #524F24",
"~  c #4F5326",
"^  c #545424",
"/  c #5C5D24",
"(  c #59582C",
")  c #494838",
"_  c #534D39",
"`  c #4E5139",
"'  c #575838",
"]  c #5F6326",
"[  c #5D6338",
"{  c #626324",
"}  c #686928",
"|  c #6C7224",
" . c #6A712B",
".. c #727525",
"X. c #757A22",
"o. c #757A2C",
"O. c #787B29",
"+. c #6F6F32",
"@. c #686837",
"#. c #63633D",
"$. c #777837",
"%. c #74743A",
"&. c #5A5A45",
"*. c #5E5C57",
"=. c #655D47",
"-. c #635E56",
";. c #5D6040",
":. c #696847",
">. c #757547",
",. c #7B7D44",
"<. c #7C7C4D",
"1. c #6D6C50",
"2. c #787556",
"3. c #6B6761",
"4. c #7A7763",
"5. c #827C0D",
"6. c #807F4B",
"7. c #807B56",
"8. c #827D5A",
"9. c #837D66",
"0. c #857E78",
"q. c #768200",
"w. c #7A8301",
"e. c #7D8800",
"r. c #76810D",
"t. c #7B830D",
"y. c #7E890D",
"u. c #7B8416",
"i. c #788418",
"p. c #7C841C",
"a. c #7C8324",
"s. c #7E842C",
"d. c #7D8238",
"f. c #7E8247",
"g. c #878805",
"h. c #818C0D",
"j. c #968D02",
"k. c #988F00",
"l. c #88920B",
"z. c #969A01",
"x. c #838917",
"c. c #848C1C",
"v. c #8C9417",
"b. c #A79E00",
"n. c #9BA400",
"m. c #ACA300",
"M. c #A2AB00",
"N. c #ABB502",
"B. c #B8B701",
"V. c #838926",
"C. c #859124",
"Z. c #858B34",
"A. c #838539",
"S. c #8D933D",
"D. c #C7BC00",
"F. c #C9BE00",
"G. c #B9C500",
"H. c #C1CC00",
"J. c #CBC800",
"K. c #D1CF00",
"L. c #CBD600",
"P. c #D5D500",
"I. c #DCD700",
"U. c #D5D900",
"Y. c #DDDC00",
"T. c #DCE600",
"R. c #E3E500",
"E. c #E3EC00",
"W. c #E5F200",
"Q. c #EAF500",
"!. c #EDFB00",
"~. c #F1FF00",
"^. c #898B41",
"/. c #888A47",
"(. c #84844D",
"). c #8D9247",
"_. c #91924B",
"`. c #898758",
"'. c #8D8B5C",
"]. c #918F5C",
"[. c #949458",
"{. c #93935C",
"}. c #8A8567",
"|. c #8D8A62",
" X c #918E63",
".X c #948D6B",
"XX c #949169",
"oX c #9A9668",
"OX c #8D8776",
"+X c #948677",
"@X c #938C74",
"#X c #958D7B",
"$X c #9A8D7D",
"%X c #969174",
"&X c #9D9A74",
"*X c #979378",
"=X c #9B937C",
"-X c #9E997C",
";X c #A49E6E",
":X c #A49A7A",
">X c #A19C7B",
",X c #9DA97A",
"<X c #A5A66A",
"1X c #ABA57B",
"2X c #897F88",
"3X c #928887",
"4X c #9A8D83",
"5X c #979585",
"6X c #9D9383",
"7X c #9D9A84",
"8X c #9D9589",
"9X c #9F9495",
"0X c #A29583",
"qX c #A49B84",
"wX c #A89B86",
"eX c #A3968B",
"rX c #A49B8A",
"tX c #AA9E8C",
"yX c #A49B93",
"uX c #A99D95",
"iX c #A69998",
"pX c #B19E9A",
"aX c #AAA485",
"sX c #A9A586",
"dX c #ABA28C",
"fX c #B3AA8E",
"gX c #B8B48F",
"hX c #A7A394",
"jX c #ACA394",
"kX c #ADA39B",
"lX c #B2A592",
"zX c #B4AC94",
"xX c #B2A59A",
"cX c #B7AB9B",
"vX c #B7B49A",
"bX c #A597A7",
"nX c #AEA4A7",
"mX c #B5ABA3",
"MX c #C2B8A7",
/* pixels */
"V 1 ` 9XhXsXy :.xX^ ( 4XbXbX&XI V p.T q k s $ :.xXyXlXtX6XwXuX$Xu 7.1XeXiX3X1.$.nXqX/ e Z C y.i.S A ",
"w e >.jX8X=X! ,.wX^ / -XkX5X`.L S u.A h A m s `.$X0XdXzXwX0X0X0X>./ %.XXsX|.{ | tX:X+.n Z B S B A Z ",
"J r P oX7XhX@.Z.{.d g ].>X`.O.H C r.H C y.H z '.wXwXwXwXtX0X:XwX1X{ r 6.S...n U  X{...M S S S m k h ",
"{ h h s.XXfX%.H d.K l ..A.o.L w.C u.u.D y.r.l +.qXdX=X$XlXxX4X$X;X .G G h m A t.o.o.L V S U J J l 9 ",
"; q j U $.(.K v A I b h M A V D H i.U w V U k J 2.8XrX6XjXjX}.1.( p T G j M A C I I V h v m 9 5 y 5 ",
"o 6 j A R  .m V V H H v V C v b V l 6 # e X.L L #..XqX@X}.<.+.{ / 3 m G A A b A Y G C j v L 9 , y & ",
"1.@.s h r.u.U L D H H H H V J n w # ; ) 1.(...L { %.(.,.+.K T I s.L A A R X.V y.H H t.V A | i ~ zXhX",
"vXqX>.n C C H o.h.C H x.H V L ..q @ _ 2XmX1Xo.A s s d c { { d K c c K z { W ' h.H t.c.H S | 5 ^ kXhX",
">XdXsXs.P d } v L L I G G G M A 9 u sX:X$XxXsXw E.W.T.P.P.P.P.U.P.P.P.P.U.b * C.x.Y V S H s.9 ( xXjX",
"eX9X8X<X$.$ a V m m b b A H Y G 5 u :X#X+XlXzXh !.!.Y.m.0 f n g g g g f n $ Q x.V S I S j U x /.&X;X",
"kXnX9XzX=.% / V A A A A v v h v 5 ~ qX$X+XyXzXh !.!.Y.j.. ,.).^.(.^.A.^.d.s.u.C U q 8 m j H I Z.#XqX",
"%XkXyX*X: =. Xa.S V v h h k A U $ ~ qXeX6XtXdXb !.!.Y.m.- p a a g s g p % ,.i.i.P > > z M H G H f.`.",
"d.oXsX6.y 8X:XX.S v h J | x 2 @ + ) =X6XeXwXOXh ~.!.I.J.F.D.D.D.D.D.D.B.o ' 5 p > 5 %.| h V H S V U ",
"w s _...} aX XL U J x s , O O O ;.2.7X6XeX4X3.v !.!.Y.b.1 p g a s p s ! % -.t t i f.<X| h m J r 2 2 ",
"y $ } m X.[./.p.P e @ o % < 1.7X%X7XtX#X0X4X-.f !.!.Y.j.. :.@.#._ :..XdXzXdX>XqX|.`.).x k h 6 y & * ",
"qXOX6.L H n K v 8 @ O ' OXhXhX5X7X7X8XOXeX6X-.b !.!.I.m.0 r a 7 X =XlX0X8X8XrXlXgX>.} k U > o &.@XsX",
";X-X8X=X/ > k z # $ pXpXpX:X>X.XOX:X%X:X4X3X*.h !.!.Y.J.F.D.D.b.. eX:X:XsXsXlXcXmX;XE H X.O :.lXlXlX",
"1XtXyX-X{ 2 J l ..- 7.0XeX$X0.5XiXMXlXtXrXeX*.h !.!.Y.b.@ y ! ( = tXqXdXfXlXtXwX0X[.V.V l 4 8.=XlXzX",
"dXuXhX&XK 8 V k b 3 6.oX9.:XOXyX$X$X.X.X@X.X&.h !.!.Y.k.. @.u 1.$X4X6XrXwXeX4X$X'.d.c.H h { &X@X6XwX",
"tXxXkX&XX.V S S b M S.6.} 6.%.>.6.6...} ! * : w !.!.Y.k.X (./.! 8.0XxXuXeXeXwX0X6.L H h.H K '.wX+X$X",
"lXxXmXoXa.r.S L K 3 z T p.v h Z b I I q , W &.w !.!.Y.k.X oX<XT ( .XjXyX8XtX:X'.V b b H H m { -X0X6X",
"qXxXcX{.a.H h e o $ } T x.C j 8 v H i.2 u %X*.h !.!.Y.k.X %.6.M 7 +.}.4X8X=X<.a h H G V V M 6 1.wXwX",
"=XtXfX(.T m 1 $ * .X:X).P S 8 + d. .9 O ' yX*.h !.!.Y.k.X +.V C M K >.*XqX{...h B S p.Y b H 3 y 0X0X",
":XdXfX(.T M # % +XmX+X{.J o.i < sX' O $ 2.mX*.b !.!.Y.j.X d.H D C q ] |.XX} r C C h T C.N F 3 O $X$X",
"bXeX<XV.u.L i 1.gX:XeXqX{.s # ] gX8.O %XMXyX*.n !.!.T.k.X Z.D A D q.V V p.U m U V p.A G x.w @ -.:X:X",
"iX@X_.E Z J e :.cXeXeXiXsX<.W :.dX>.t  XhX3X*.h !.!.Y.k.X Z.H u.m u.U S H A S c.D c.G G x.M / }.4X0X",
"|.%.o.L B x x ] 8XiXkX8X>X>.( 2.tX( 5 %.&XqX*.h ~.!.Y.k.X Z.H u.L R L I p.u.H H h.x.H A G A ..[.uXuX",
"| r J I m Z k k <.%X*X<.(.| d `.:X6 w m ^.[.&.h !.!.Y.k.X Z.G H j q h m m q 2 3 H H G A V M I X.7.8.",
"j h l u.A m I j ..o...m Y p.I A.(.0 u.D A T ` b !.!.Y.k.X S.Y H b h h n 2 o t 1.X.I I H A G U m s g ",
"k k x U S v U A A S p.U w.g.V 5.E h y.w.D Y ` h !.~.Y.k.X S.u.Y A w q 8 # Q 4.kX{.A.Y G A L L b w w ",
"9 x h A H v G L Z k V.C.D D b I U V C t.u.V.` v ~.!.Y.k.X S.p.A 6 1 1 # 4 2.hXhXuX`.I C A J l w 8 e ",
", e 8 v h.V M M J 2 K p.H x.E K A p.S x.I L ) h !.!.Y.k.X S.v q % ' >./ / XXfX*XbX}.A V u.T a z 5 , ",
"* Q #.| Z S k 9 o y ] i K T C.q h h k P L k ` h !.!.Y.j.X $.9 & _ OXsX=X:.Q 2.:X,Xu s m u.U x >   o ",
"OX.XXX/.a.U k > < >.XX`.} 8 Z j l h h %.f.f.| n.!.!.Y.m.r %.#.:.6X7X-XdXaX2.=.Q :.y (.Z.U 3 > o =.1.",
"*X=X-X|.d.L w > 2.*X7XsX|.$.| J %.#.#.a.z.z.T.!.!.!.W.R.R.k.5.Y 9.4.OXdXMXfX:X9.[ [ [.^.6 + < &..X=X",
"OX6XhX1X$.K k e *XyXOXmXfX1X(.f.i.B.G.T.!.!.!.!.~.~.~.~.~.Q.Q.T.m.b.x.2.zXdXzXzXf. .Z.P @ y 2.5XwXwX",
"qXuXmXtX(.| r 8 f.xXeXbX8XsX* z.W.!.!.!.!.!.G.n.M.M.n.M.N.T.!.!.!.!.T.m.& 8X0X#XA.L S h > :.#XqXwXeX",
"sXeXiXeX[.<.M 3 1.jXuXeXhX}.H L.!.!.!.N.w.w.f.>.f.>.,.>.f.a.e.l.T.!.Q.P.5.2.iX8XA.H q.j # 2.=X=X$X$X",
"1X0XyXeXoX_.c.V ( &XeX4X3X> E.!.W.L.L /.).).p.M A v M m h d.f.1.%.N.E.!.Y.V ) 4XA.x.h.v @ 4.rXqXrXwX",
";X0XiXeX7...Y N 6  XtX3.i.U.!.!.N.$ A.r.r.H L J G M I L > > e , @X1.m !.Q.K.j.&./.V.h.m $ 0.iX:XqXrX",
"0X%X$.R H V H A M ^.'.= q.~.!.B.U >.U U i.i.C C p.v u.3   ~ a.B :.hX8.n.E.R.b.X _.h.h.0 @ $X6XdXwXlX",
"9.:.a M G V A A Y ..$.= D ~.Q.8 ` 9 > > k I U i.i.r.u.e =.sXoXR z |.kX  H.R.b.X _.G D 3 t 0X8X6XcXlX",
"6./ e M H V h J F V d.* D ~.!.L.c.*.:.^ ] K r h h y.u.l f.mX7X<.C }.@.G.W.R.b.  /.M M e ( rXyXuXdX6X",
"| r A H H G v J C D V.' T G.Q.~.B.p 6X}.|.f.c q h U H k ,.-X X(.C.@.F !.Q.B.5.{ p.V G m { XXqXvXlXwX",
"0 h V D q.y.u.u.q.y.U O 1.O T.!.!.T.l.|.5X.X$.q s 2 2 w | `.`.<.U G.!.!.P.b W R w.V H A M O./.{.dX@X",
"r T M C H u.c.H Z i.k @ 9.yXl G.~.!.~.H.n.n.+.' ' ' &.:.:.l.n.N.Q.!.W.P.w  .Y Y h.C H H y.H I r ' _ ",
" X'.p K U M a.8  .| 9 5 #XiX*.v.U.!.~.~.!.!.L.H.H.H.G.H.H.Q.~.~.Q.Q.U.k.y o.G E h.H U t.h.w.t.w 2.@X",
"xX#X$ p  .e | > f. .@ u hX9X8XqX(.z.z.H.E.E.!.~.!.~.~.~.~.E.E.P.j.5.T =.[ c b h.H A O.U e.D v.U }.qX",
"m 9 o $X:X>., t zX(.X #X=X6X=XrXkX=X-X<.n m B.P.P.P.P.P.K.Y f K @.&.4.8X=X7.i @ o $.l j S y.h.5.A A ",
"k > $ 6XdX|.t u vX}.o %X6X7X6XtX}.$.o.s { T ^ # - - - - 4 0XoXz > $ }.vXtXXX/ O ^ {.c k v H h.t.H A "
};
