/* XPM */
static char *_3109271b935492bd9e62ee6d822911dMMrmkmL8GjV7qkxf[] = {
/* columns rows colors chars-per-pixel */
"50 50 255 2 ",
"   c #0C0301",
".  c #030905",
"X  c #0B0B01",
"o  c #130200",
"O  c #170707",
"+  c #140D01",
"@  c #1B0C01",
"#  c #081607",
"$  c #00130C",
"%  c #141202",
"&  c #1C1302",
"*  c #12130B",
"=  c #191309",
"-  c #191A09",
";  c #070D12",
":  c #051814",
">  c #141513",
",  c #171A17",
"<  c #1B1B14",
"1  c #270A02",
"2  c #241301",
"3  c #231A02",
"4  c #271A09",
"5  c #311007",
"6  c #341806",
"7  c #221A14",
"8  c #2A1C15",
"9  c #1C2109",
"0  c #0A291B",
"q  c #182618",
"w  c #282606",
"e  c #35270A",
"r  c #2C3302",
"t  c #333A00",
"y  c #383807",
"u  c #25261C",
"i  c #282718",
"p  c #352A19",
"a  c #2C3416",
"s  c #37351A",
"d  c #231F21",
"f  c #1D2722",
"g  c #112F2B",
"h  c #282A27",
"j  c #382D24",
"k  c #293827",
"l  c #393728",
"z  c #283735",
"x  c #3A3734",
"c  c #431806",
"v  c #47371A",
"b  c #543913",
"n  c #443A28",
"m  c #593C2B",
"M  c #483732",
"N  c #613323",
"B  c #3B4300",
"V  c #394107",
"C  c #384615",
"Z  c #1C4132",
"A  c #344F31",
"S  c #384B37",
"D  c #3C6139",
"F  c #434C00",
"G  c #484C07",
"H  c #464C0D",
"J  c #4C5400",
"K  c #4A550A",
"L  c #555D00",
"P  c #575C08",
"I  c #545B0D",
"U  c #484818",
"Y  c #525319",
"T  c #585A18",
"R  c #614F19",
"E  c #5B6300",
"W  c #5E6A00",
"Q  c #5D620D",
"!  c #5B680C",
"~  c #5D6116",
"^  c #5C6819",
"/  c #5D7110",
"(  c #626707",
")  c #636B00",
"_  c #636B0D",
"`  c #686C0D",
"'  c #637100",
"]  c #6A7200",
"[  c #6D7900",
"{  c #64700D",
"}  c #6B730D",
"|  c #6D7A0D",
" . c #727B00",
".. c #757B07",
"X. c #70760D",
"o. c #737B0D",
"O. c #646B15",
"+. c #656919",
"@. c #6B7216",
"#. c #69731A",
"$. c #717616",
"%. c #737C16",
"&. c #757A1C",
"*. c #474728",
"=. c #534A28",
"-. c #4B5927",
";. c #595925",
":. c #474638",
">. c #554A37",
",. c #595636",
"<. c #645827",
"1. c #6E522F",
"2. c #675838",
"3. c #556E30",
"4. c #656726",
"5. c #6C7224",
"6. c #6A732C",
"7. c #757A22",
"8. c #767928",
"9. c #696739",
"0. c #746E31",
"q. c #777836",
"w. c #747539",
"e. c #1F4441",
"r. c #385542",
"t. c #355854",
"y. c #31635B",
"u. c #396B64",
"i. c #4A4845",
"p. c #574A42",
"a. c #47534D",
"s. c #595645",
"d. c #5C5D56",
"f. c #655647",
"g. c #72564D",
"h. c #466A48",
"j. c #456A59",
"k. c #556B55",
"l. c #696645",
"z. c #6A714C",
"x. c #787649",
"c. c #6A6656",
"v. c #756857",
"b. c #797659",
"n. c #547069",
"m. c #6B6665",
"M. c #797667",
"N. c #71736A",
"B. c #8B6E3C",
"V. c #8E714F",
"C. c #877B4B",
"Z. c #837B57",
"A. c #8F7665",
"S. c #867966",
"D. c #887E76",
"F. c #798408",
"G. c #7B830D",
"H. c #7B8316",
"J. c #7A841B",
"K. c #7C8426",
"L. c #77833A",
"P. c #678345",
"I. c #7D8148",
"U. c #5D827B",
"Y. c #74856D",
"T. c #68847D",
"R. c #818B0D",
"E. c #848A19",
"W. c #879212",
"Q. c #828725",
"!. c #8B9222",
"~. c #848638",
"^. c #878849",
"/. c #898859",
"(. c #919151",
"). c #93935A",
"_. c #B3924F",
"`. c #8A8567",
"'. c #918D63",
"]. c #93896B",
"[. c #8F946D",
"{. c #979369",
"}. c #8B8474",
"|. c #8A8578",
" X c #938677",
".X c #938C73",
"XX c #948B7A",
"oX c #9B8D7D",
"OX c #989477",
"+X c #9B937D",
"@X c #AB916A",
"#X c #A49978",
"$X c #A19B7C",
"%X c #AFA56F",
"&X c #AAA579",
"*X c #EAB95D",
"=X c #C49864",
"-X c #CFB172",
";X c #E4B866",
":X c #E4BB7A",
">X c #DAC476",
",X c #EECD77",
"<X c #897F88",
"1X c #768A87",
"2X c #8B8F8B",
"3X c #988B84",
"4X c #9C9382",
"5X c #999787",
"6X c #9D958A",
"7X c #9F9596",
"8X c #A29582",
"9X c #A49B84",
"0X c #AA9B86",
"qX c #A3968B",
"wX c #A49B8B",
"eX c #AA9E8C",
"rX c #B29F8F",
"tX c #A69A95",
"yX c #AAA486",
"uX c #ABA787",
"iX c #ACA28C",
"pX c #B5A78B",
"aX c #BCB48F",
"sX c #ADA294",
"dX c #ACA49A",
"fX c #B3A593",
"gX c #B5A998",
"hX c #B7B298",
"jX c #A597A7",
"kX c #B3A8A4",
"lX c #C8AC88",
"zX c #CAB48A",
"xX c #D4B682",
"cX c #C6AE95",
"vX c #C3B394",
"bX c #C8B797",
"nX c #C5B49A",
"mX c #D2B99A",
"MX c #C7B7A7",
"NX c #CCBBA3",
"BX c #D3BCA8",
"VX c #CBBDB1",
"CX c #E6BDA0",
"ZX c #D5CC98",
"AX c #E9C688",
"SX c #E8D190",
"DX c #FBE69A",
"FX c #C9C3A7",
"GX c #D3C9AA",
"HX c #DAD0AA",
"JX c #D8C7B7",
"KX c #E6CEAD",
"LX c #FBE7AB",
"PX c #D0CCC4",
"IX c #E2D1C6",
/* pixels */
"] F >.7XdXyXU l.dX=.-.4XjXjXOX&.] J.&.L _ I y l.tXtXfXeXoX9XrXoXU C.yX6XtX2Xl.q.kX6X<.I { [ H.G.| @.",
"L I x.gX5X+X-.x.9X;.<.+XdX5X^.$.| H.} E @.! T /.4X8XfXgX0X8X8X8Xx.4.w.'.yX'.4.5.eX$X9.Q { ' F.' } _ ",
"+.P #.{.5XsX9.~.).+.~ ).&X`.8...[ G.o.] G.F.^ /.0X0X9X9XeX8X4XeX&X4.+.8.~.8.( %.'.).8.} | | | { ! E ",
"4.L E Q.{.yXq.o.B.+.Q 5.L.8.X.F.[ H.H. .G.G.Q 0.9XiX4XoXsXgX4XXXOX0.@.} ) O.` G.q.K.@.' | %.O.O.I K ",
"v L W %.q.^.~ ] } $.) E ` X.]  .o.H.$.L ] &.Q O.b.4XwX6XsXfX`.v.;.T $.o.) } } ] $.$.] ) ' _ J H U H ",
"w H W } &.6.O.] ] G.o.) ) ] ) ( ' Q K t I 7.#.#.2.].yX.X`.x.9.4.<.G _ X.} } ) X.&.[ ] E ' O.H H U C ",
"z.l.I E o.H.$.@. .o.o.o.o.] _ _ E y v :.v.^.&.$.4.w.^.x.4.O.} } K.` ) ] $.$.) R...X.G.] } 5.Y -.gXiX",
"hXyXx.Q [ [ G.8.R.] o.E.o.] @.8.L t >.2XkX&X8.{ J B I 8.&.{ W F.]  .G.) $.&.] R.o.R.E.%.} 5.H -.dXtX",
"OXiXuXK.#.T 5.) @.@.$.o.} X.} } K Y yX4XoXdXyXb.-.S n.k.z.3.C T ^ &.$.` &.&.o.E.E.E.] o.F.K.K ;.gXsX",
"wX7X5X%Xw.y T ] ` _ ( ( } o.%.o.H U $XXXd.z $ : $ $ $ $ * : > , a s #.)  .o.H.G.) X.@.} W J.+.^.{.&X",
"dXkX7XfX2.i ;.) } } } } ) ) ) ) C a   > S m.D.6XwX5X5XY.c.s.l = * , q A _  .F.[ $.L J / E o.$.~.OX9X",
"[.dXtXOX*.f.{.Q.X.] ( +.4.H H j s.s.c.rXMXBXBXBXnXnXFXGXFXGXNXsXg.7 X : A 3.J.J.#.B B ~ _ o.X.o.x./.",
"L.{.uXx.U qX$X7.| ) E i.dXc.= p gXJXJXBXmXcXcXlXmXvXbXvXpXvXFXNXJXMXs.# $ Z D I F B L.6.E ] o.X.] o.",
"P T (.7.4.uX'.$.%.@.U u |.tXv.  j 0XnXlXbXmXCXcXzXzXbXbXbXvXbXbXnXMXIX|.: : r.:.Y x.%X5.L _ @.I F G ",
"U y 4.` &.).^.J.#.K * = g.+XOX,.X s.MXNXhXcXvXvXbXbXcXvXmXBXnXnXnXnXMXJX X> : N././.(./ / E H U s s ",
"9X}.Z.} o.( +.( K * s.% l .X.XOXa # OXFXbXnXNXcXcXNXNXnXnXcXcXbXvXnXcXVXIXm.. t.5Xx.4.! $.B r s..XyX",
"#X$X6X+X;.B / ^ q x 3X8 2 v.A.OXb.% S NXvXzXMXVXBXkXMXMXmXlXzXBXmXnXsX.XMXVXh $ 1X[.&.o.J.C h.fXfXsX",
"&XeXeX$X4.B / A < g.rX>.+ :.S.].+X*.X `.ZXcXBXv.g.MXMXMXzXxXmXyX$XJXc.  4XIXc.. t.Y.K.3.D A u.T.1XsX",
"yXsXsXOX#.J 3.A i D.4Xb.- u v.c.}.N.X s.GXrXBXm   #XnXnXzXbXnXf.2 0X7X  p.VXsX* 0 k.P.D g : ; g u.U.",
"pXsXdXOX8./ h.0 u XX}.5Xa.X M S.M.N., h MXBXJXS.  c.GXaXzXnXJX|.  c.JX8 v VXPXj $ D z.q , c.d., 0 t.",
"rXgXkX{.K.P.y.: M sX2X|.k.X & 6 M i.h <  XgXdXeX% :.FXhXbXaXhXtX@ l 3Xj 8 p.>.u , z :.< M f.S.S.: 0 ",
"qXdXhX).K.3.y.# l c.3X2X:.X >.e 8 7 *   = 4 4 j q f i w e e 4 4 u X , * 8 8 = + h i.= = f.=.m p : e.",
"+XeXfX^.&.3.y.: % + 4 f.p & ].].A.8 7 j 4 & +   . f l *.b b >.f.s.:.h * 7 l l * h q - s.2.v m @ e.n.",
"+XiXfX^.5.{ y.$ a A.e o 1 e ].$XA.o p  X8XeXD.d.z . u s.@XpX@Xf.i % i i.p.u * * , u X u M n @ , n.T.",
"jXtX%XK.H.{ u.e.# &X-XB.b 1 4 b.#X=.+ & 3 c A.<XdX3XM o R {.6 1 m D.D.s.x j > > q N.d.q # q - s.T.6X",
"tX.X(.&.{ { u.y.# w ZX:X_.B.e p l.Z.& w C.N 1 5 4 >.>.1 V.B.o =.v.v o n 7 O , , , > x N.k.a 0 n.1X3X",
"'.w.8.@.W { ~ u.Z X R AX=X@X2.X - i - ZXDXLXCXN 5 5 1 5 xX%X<.@ O m @X1.D.7 7 O j x > , S Z g U.1XwX",
"5.I #.$._ { / h.j.q @ 0.=XV.p 4 <   C KXSXDX=Xc 6 g.g.1 xXSX-XR 1 BXCX5 p n   d O x x f 0 k -.8.Z.Z.",
"E E / &.} { $.) j.r.k & 2.2.X c.i.. p HXDX,X@X5 5 m N c -X-X>XB.o zXKXN S.l O > M 8 O k -.7.$.} ~ T ",
"! ! _ %.| ) $.} | 3.A 0 e e - MXM.< % b.LXLXLX@XA.A.1 R >X;X>X_.1 b KXKXv.* , > p.N.:.q 3.@.@.E E L ",
"K ^ E | G.) X.@.{ ^ L.D a + l MXiX2 @ + =.Z.V.#XZ.@ e _.,X*X*X,X<.o w w & * , f   7 > C X.@.~ L J I ",
"B I J ' G.) ` ` O.F ^ J.A 9 m.VXJXm + f.v @ 2 @ 2 ;.%X:X;X*X;X-XZX/.w.=.% < 2Xa.# g -.' %.$.~ ~ H V ",
"l *.9.5./ { { J w U ;.Y A * z m.m.8 O Z.#XlXxXzX@XV.%XSXxX-XAX%X1.yX].s   x m.z $ r.T _ H.%.^ B - w ",
".X].[.^.K.H.! B *.z.[./.5.A g ; . < 8 o o b zXV.1 o 6 g.v 2 <.2 + @ @ o i , . ; e.S ^.~.%.J B 9 2.b.",
"OX+X$X'.q.@.L B b.OX5XyX'.q.h.A Z - 9 .X].@ 3 2 p  Xn 2 j n w n Z.3 3 M p.> h Z j.;.).^.K r *.,.`.+X",
"}.4XfX$Xq.@.! I [.wXXXkXpX#X^.h.S 9 X ,.b.3 3 X :.6XM.i.tXPX2Xi >.4 & s.h f : 1XI.6.~.&.y C M.5X0XeX",
"9XsXgXrXZ.#.Q J S.fX7XsXwX#Xx.h.. 9 x & %   c.s.= 7 <   x tXM O % w & q u : n.+XL.@.| E B l..X9X9X8X",
"yXqXtXqX).B._ J l.rXtX7X4X{.L.A # 2 s M M o n p.= - = X - % 7 1 4 }.M.* : n.eX6XQ.o.F.W B b.oX#X4XoX",
"&X+XtXtX{.(.K.] ;.OXqX3XeX{.~.0 w ,.6 2 1 4 8 8 i p w s p p p v   s.PXf z |.iXtX~.Q.W.W t M.qX9X0X0X",
"#X8XtXqX/.8.$. .H ).eX3XeXZ.4.$ [.ZXvXfX2.o p i p i i w l i 8 8 + d.d.k 4X4X6X|.B.Q.G.{ y D.tX8XwX9X",
"4X.Xq.&.o.] o.} ` ~.^.q.K.| 6.$ OXZXZXHX9.& 4 s j l l 7 > M p.O 8 c.S.oXA.#XwX2XE.W.R.J y oX4XyX9XfX",
"S.x.T ` X.] } ` E.8.0.5.K.O.I 0 r 6.x.z.e & & :.|.dXY.f ; x i.h U ].sXtXtX9X'.Z.J.o. .G U 8X3X4XgXfX",
"x.4.I ` o.) L @. .] 7.T ! B t A # %   + % l i.* , f ; ; x h > l.[ ^. XD. XZ.q.7.J.} ` I ;.wXtXdXiX4X",
"5.I ` o.G.o.) @.]  .Q.F t a ,.XXN.d.s., q M z < ; k , , x z {.^. .Q.x.9.4.+.} o.o.] X._ 4.'.9XhXgX9X",
"J E ]  .F.F.H.H.F.G.%.r -.`.6XgXoX8X0X|.[.z.-.a h x f y -.8.~.#.) H.&._ ' ' [ %.F.] o.} ` 8.^.).iXXX",
"( 5.X.] o.G.E.o.| J.! t b.gXdX6X0XfXgXnXuX^.Q B r r U 4.~ L o.[ H.!.H.) ' [ | J.W. .o.X.G.G.&.I ,.>.",
"'.).Y +.&.` K.J ^ 5.J H XX7XtX+XpXfXfXhXaX'.^ J s b.}.+X^.~ } E.!.&.! K ! ' | J.R...H.o.W.F.G.L b..X",
"dX.Xe R 6.I 5.B I.6.t U sX7X6XyXfXfXtXdXfX/.T B 9.hXdXdXyX0.E X. .J w A ,.+.) G.X.} 7...F. .!.&.`.9X",
"_ K w oX#Xx.V H hXY.3 .X+X4X+X0XdX{.%X/.I.K.B a XX4XaXfX XOX/.T J - f.4X+XZ.Y t w 6.Q ) | G.R.o.X.X.",
"/ B y 4XyX`.U U hXM.w .X+X8X4XiX`.q.q.T ~ W V s 4X9XcXfXoX#X{.T F H S.gXeX{.;.r -.).+.Q ] o.R.G.X.} "
};
