/* XPM */
static char *_a2437ef0e654c63bf2efd6d9452e686uTiqgoxM9RPfzSxb[] = {
/* columns rows colors chars-per-pixel */
"50 50 223 2 ",
"   c #350D17",
".  c #3B1115",
"X  c #3F1823",
"o  c #34272D",
"O  c #2E2E30",
"+  c #392933",
"@  c #590B0A",
"#  c #5B181A",
"$  c #490907",
"%  c #6D0709",
"&  c #7A080B",
"*  c #6B110F",
"=  c #770C18",
"-  c #691819",
";  c #761519",
":  c #6E1215",
">  c #65221B",
",  c #481B26",
"<  c #4B1F30",
"1  c #710E20",
"2  c #681B24",
"3  c #781B29",
"4  c #482628",
"5  c #5B242B",
"6  c #462B34",
"7  c #582A34",
"8  c #4B3239",
"9  c #573339",
"0  c #6D252D",
"q  c #6C2936",
"w  c #742030",
"e  c #64353B",
"r  c #733333",
"t  c #62403E",
"y  c #473943",
"u  c #523C48",
"i  c #633743",
"p  c #7D3C46",
"a  c #354F5C",
"s  c #3D6358",
"d  c #3D5662",
"f  c #1D6C6C",
"g  c #176B69",
"h  c #1C7475",
"j  c #1E7B75",
"k  c #157579",
"l  c #1E767B",
"z  c #1C7C7C",
"x  c #157A77",
"c  c #0F6D6C",
"v  c #286A69",
"b  c #3C6A68",
"n  c #29776D",
"m  c #32766C",
"M  c #3C736C",
"N  c #32786E",
"B  c #2D6D70",
"V  c #2A6E79",
"C  c #236E76",
"Z  c #376D76",
"A  c #257575",
"S  c #2B7574",
"D  c #237B75",
"F  c #2B7B75",
"G  c #25767D",
"H  c #2A767C",
"J  c #24797E",
"K  c #2A797B",
"L  c #337475",
"P  c #3D7374",
"I  c #337A74",
"U  c #33747C",
"Y  c #337A7C",
"T  c #3C797B",
"R  c #484647",
"E  c #5B4946",
"W  c #44554A",
"Q  c #454A53",
"!  c #594954",
"~  c #5C4451",
"^  c #485758",
"/  c #535455",
"(  c #565858",
")  c #64484A",
"_  c #77594F",
"`  c #645A5A",
"'  c #774851",
"]  c #4A665B",
"[  c #5A6056",
"{  c #5A5C66",
"}  c #645A65",
"|  c #4A6364",
" . c #42646D",
".. c #4C6C6C",
"X. c #476A66",
"o. c #536564",
"O. c #57696B",
"+. c #46726C",
"@. c #48756C",
"#. c #4C6E72",
"$. c #446E74",
"%. c #516F72",
"&. c #437374",
"*. c #447579",
"=. c #487677",
"-. c #537577",
";. c #51716C",
":. c #626C74",
">. c #8C0303",
",. c #84020A",
"<. c #87050A",
"1. c #950104",
"2. c #9D0203",
"3. c #93040A",
"4. c #94090C",
"5. c #970907",
"6. c #840913",
"7. c #991317",
"8. c #990012",
"9. c #A20304",
"0. c #AC0303",
"q. c #AC040A",
"w. c #A50B0C",
"e. c #A6070B",
"r. c #B40302",
"t. c #BC0202",
"y. c #BB0B02",
"u. c #B80608",
"i. c #A10212",
"p. c #A90913",
"a. c #B80811",
"s. c #B11112",
"d. c #801421",
"f. c #A51522",
"g. c #983431",
"h. c #B62C28",
"j. c #B53828",
"k. c #B92136",
"l. c #C30302",
"z. c #CC0202",
"x. c #C20904",
"c. c #CA0801",
"v. c #CC0408",
"b. c #C80608",
"n. c #D40202",
"m. c #DC0201",
"M. c #D30903",
"N. c #D7080A",
"B. c #C70C12",
"V. c #C81719",
"C. c #D8140E",
"Z. c #E30202",
"A. c #EC0102",
"S. c #E70B06",
"D. c #F40101",
"F. c #F90101",
"G. c #E61B1F",
"H. c #C73335",
"J. c #D33031",
"K. c #D82E37",
"L. c #F02222",
"P. c #EC303E",
"I. c #C64236",
"U. c #853946",
"Y. c #B93541",
"T. c #D43F41",
"R. c #FD3B45",
"E. c #F63B50",
"W. c #924A54",
"Q. c #AE5C67",
"!. c #AA6972",
"~. c #A77473",
"^. c #B26B75",
"/. c #DA5C56",
"(. c #C65055",
"). c #EE4951",
"_. c #D66769",
"`. c #C5707C",
"'. c #EA7676",
"]. c #FA777A",
"[. c #15817C",
"{. c #1A8173",
"}. c #15826F",
"|. c #27827D",
" X c #C48F7F",
".X c #F4887B",
"XX c #E88E7B",
"oX c #1D7C81",
"OX c #1D7B8B",
"+X c #356E82",
"@X c #267682",
"#X c #2A7583",
"$X c #237A81",
"%X c #2A7A83",
"&X c #25768A",
"*X c #227A8B",
"=X c #297889",
"-X c #327385",
";X c #357A82",
":X c #377B86",
">X c #2B6F82",
",X c #417E81",
"<X c #567D84",
"1X c #FF7180",
"2X c #EA7B84",
"3X c #1C8283",
"4X c #228284",
"5X c #2B8384",
"6X c #2B848C",
"7X c #358587",
"8X c #508384",
"9X c #DC8986",
"0X c #CC8D93",
"qX c #D79393",
"wX c #D28F89",
"eX c #ED8D82",
"rX c #E78986",
"tX c #E29385",
"yX c #E89899",
"uX c #F88C93",
"iX c #E8A7A4",
"pX c #F2A7AB",
"aX c #E6B3AF",
/* pixels */
"K K J J j z $X$X$XoX3XoXx oXl 4XoXz l J K D G J 3Xx -X+X+X#Xz j G 7XH C @X*X3X[.J H K H H H oXoX$XJ ",
"J J J J $XJ z $X%Xl k oXJ %X%XA 5Xj K G h D G l x 6XG -X;XC J J K f H :XG l 3Xx J J H S #XH $X$XJ J ",
"j J J J $Xz $X@XG $Xz J Y B B U f U ,XB A |.z 4XoXk =X$Xz |.g F D D A G J J [.[.z J H H H H G J J J ",
"z J J G $X$XJ $Xj |.J f I *.b -.-.#.o.b I |.g J oXoX$X%Xh S 8X%.+.+.=.$.B C J x z z J H #XH G K J J ",
"J z z $X#X@XG z |.h I *.b | ^ o 6   u }  .Y T #XoX*XH S F b ! 6 X 4 + Q :.<XV @X[.[.oXJ J J K J J $X",
"oXJ $X$X#X#X$X$Xc 7Xv ..o.O u ' !.Q.q , Q #.B G $Xk H L ..R , U.^.!.p 4 6 Q  .,XJ [.z z z J [.z J J ",
"oXz #X#X@X@XG J 5Xf M o.o i 0XpXyXyXyX^.7 6 8X|.x 5XK $.u 5 ~.aXiXqXpX0Xi + {  .K J oXoXz [.[.[.z J ",
"oXoX@X#X@X@X@XJ j m -.O 7 0XuXrXrXtXqXpX`.i d I |.v *.Q 5 ^.iXwXtXtX9XyX0X' + O.L J J oXoX[.[.[.z J ",
"oXoX$X@X#X#X@XJ j N ( , ~.tXuX]..X.XeXrXqX!.8 :.m m o.7 W.uXtXtXXXXXXXXX9X0X7 { *.H #X#XJ $XJ z J J ",
"J oX$X@X#X#X$Xz D M 8 U.wX_.K.J.h.H.I./.eX2XU.9 ] ] e 3 2X'.(.j.j.j.H./.'.tXW.8 &.K H %X#XH H H K J ",
"J $X@X@X@X$XJ J F +.4 Q._.h.0.t.y.y.t.V.T.].(.3 _ _ d.k.1XK.V.r.t.b.r.a.h.'.`.9 M D H #X#XH U U G J ",
"J J @X@X$X$Xz K F | 5 (.f.9.b.z.c.M.n.n.B.).).7.g.g.p.).R.l.c.M.n.S.z.l.q.h._.9 s j J #X#X#XH H G J ",
"K J J $X@X$X$XK n ^ 3 Y.8.q.C.n.N.m.A.m.z.C.R.B.a.a.b.R.B.l.m.Z.n.N.N.z.t.e.Y.r s D K G $X%XJ $X@XJ ",
"H K J oX@XoXz D n ^ 3 f.p.y.z.Z.S.Z.A.Z.n.z.L.N.v.N.N.G.b.M.Z.A.S.n.m.n.l.0.f.r s n H $X*XOXoXoXJ J ",
"S G G J oXoX$XA m / = i.e.t.z.A.A.D.F.D.S.M.M.z.n.Z.S.n.N.m.Z.D.S.Z.A.Z.m.t.9.% W I Y G =X$XoX%X$XJ ",
"K K G K oXoX$XH T W % 8.r.b.Z.A.D.F.F.A.A.S.m.S.Z.Z.Z.Z.Z.S.D.D.A.A.A.Z.n.l.q.% R m H @X=X&Xl $XJ J ",
"[.j K K $X@X#X#XU ] @ 1.u.n.Z.A.D.D.D.F.D.D.A.A.D.A.A.A.A.D.D.D.D.D.A.Z.n.l.2.* [ n [.oX*X&XH K J J ",
"[.z A A G @X=X#XF | # 1.r.v.Z.A.A.A.D.F.F.F.F.F.F.F.F.F.F.F.F.F.F.D.A.m.v.r.1.* ] n oXOX*X#XH S K @X",
"[.J D F G G @X@XA ..2 >.0.l.n.Z.A.D.D.F.F.F.F.F.F.F.A.S.D.D.F.F.D.S.A.n.l.r.1.2 ] |.oX*X=X$XJ D K J ",
"[.J J K H H *X$XA %.0 & e.t.z.m.S.D.D.D.F.F.F.D.A.F.F.F.F.F.F.D.A.Z.Z.n.t.9.3.0 @.z oX$X@X@XJ D J J ",
"$X$XJ D K K oXoXH #.i % 1.r.x.M.Z.A.D.D.F.F.F.F.D.D.D.D.D.D.F.D.A.Z.n.c.r.2.6.e +.D oX$X#X@XJ z z J ",
"$X$XJ D A J $X$X#X$.! 2 3.r.y.c.Z.A.D.D.D.F.F.F.D.D.D.D.F.F.F.D.A.Z.M.x.r.3.2 ~ P J $X$XH G oXoXJ J ",
"#X@XJ D D z $X@X-XZ | 7 6.0.y.z.m.A.D.D.F.F.F.F.F.D.D.F.D.F.F.D.D.m.c.r.0.6.7 { U @XoX$XG J z oX$XJ ",
"#X@XK z z z $X$X-XV T R = 2.y.l.m.Z.A.D.D.F.F.F.F.F.F.F.F.F.F.F.D.m.x.0.e.= u =.U @X$Xx j G $X$X$XJ ",
"#X@XJ J z {.J @X#XV S X.2 <.r.z.m.Z.A.A.D.F.F.F.F.F.F.F.D.D.F.D.D.n.l.e.<.0 | ;X-X&Xz [.z J @X@X$XJ ",
"H #XH K z z [.J -XV |.b E = 9.l.v.n.m.A.D.F.F.F.F.F.F.F.D.D.A.A.Z.n.t.2.* E *.#X-X$Xx [.D K @X#X@XJ ",
"G G H @XJ z [.J H -XJ S O.5 <.u.t.l.n.m.A.D.F.F.F.F.F.D.D.A.A.m.z.l.q.,.7 { T G #X@X[.[.J H #X@XJ J ",
"K G @X@X@X$X[.[.S ;Xh K P ! 1 8.q.t.b.n.Z.A.D.D.F.F.D.S.A.Z.Z.n.t.a.3.: ( =.C @X@X@X[.[.J H #X#X@XJ ",
"D K $X@X#X@Xz z S ;XG J S -.i ; 3.0.t.v.m.Z.A.D.D.D.D.A.Z.m.n.l.0.5.; e ..U G $X@XJ z z J H #XJ J J ",
"j j $X@X=X&Xz z K S K h J T O.7 6.2.0.x.M.m.A.D.D.A.A.Z.N.n.v.t.w.& e O.Z G =Xl J J J z @X@X@XJ J J ",
"n {.oXOX&X&X@XK F D J G @XK T / ; 5.2.r.v.n.Z.A.A.A.Z.Z.n.v.l.r.5.> ( =.V @X6Xl J K J J @X$XJ J J J ",
"D D oXOX&X@X@XF D D l 5XJ G j =.t ; >.0.x.z.n.Z.Z.A.Z.n.M.l.r.3.* ) @.F @X=X$Xz J K H H @X$Xz J J J ",
"D J J oX@X@XJ J J J J J J $XJ I b ` & 0.x.l.t.c.n.A.m.n.z.r.p.= ! b U H G G @XJ J J J G @XJ J z J J ",
"J J J J @XJ J J J J H J J J J $X@X .r >.r.t.t.x.M.n.m.n.y.w.& e  .H %XH G J J G J J J J J J J $XJ J ",
"J J J J J J J J J J J J J J J @X%XM ` > 1.r.l.l.v.z.n.z.u.4.> ` &.#X%XJ G G J @XJ J J J J J J J J J ",
"J J J J J J J @XJ J J J J J J J F T X.E * w.t.v.l.v.l.t.w.: E #.U J H G J J J H J J J @Xz J $Xz J $X",
"J J J J J J J J J J J J J @XJ J J K B ..e = 9.b.r.u.t.r.& e ;.S K G G K J J J G J $XJ J $XJ J J J J ",
"J J @XJ J J J J J @XJ J J J J K J j J T { # 4.0.q.9.a.3.> [ T j J G J $X@XG J G J J J J J J @XJ J J ",
"@XJ J J J @XJ J J J J J @XJ J J J J #XU =.R : >.3.1.8.= E @.K $X$XJ G @X%XJ G J J J J J J J J J $XJ ",
"J J J J J J J J J J J J J J $Xj j $X#X>XU | 5 * ,.7.& 2 X.n G $XJ J G J J G G J H J J @XJ J J J H J ",
"J J J @XJ J H J J @XJ J J J @XJ z J #X#XG P ) @ % % @ ) &.%Xl 5XJ @XJ J J J J J $XJ J J J J J J J J ",
"J J J J J J $XJ J J J J J J J J J l #X#X$XY ^ 4 * @ 4 ^ T $Xl J J J J J J $XJ J H J J J H @XG J J J ",
"J J J J J $XJ J J J J J J J J z z j K #XG ;X .R $ $ R M #X$Xl J J J J J J J J J @XJ J @X@XJ @XJ @XJ ",
"H $XJ J J J $XJ J J J @X@XJ J J oXz H K H H I ] . . ^ S $X*Xj J J J J @XJ J J J J J J H J J J H J J ",
"J $XJ J J J J J J J $XJ J J J J oXl J @XH S |.N O + $.A oX$XJ J J J J z J J J @XJ J J G H J H J J J ",
"J J J J J J J J J J J J J J J J $X@X$X@XG D {.F a a ;XH $X4XJ J J J J J J @XJ J J @XH J H @XH J J J ",
"H J J J J @XJ J J J J J J @X$XJ #X#XoXoXD j }.{.V +X-X%XJ [.z J $XJ $XJ J H J J J G @XJ H J @XJ J J ",
"$XJ $XJ J J J J J @XJ J J J J H H &XoXz J {.{.z $X=X#X-Xj J J @X[.J J z J J J J @XJ J J J @XH J @XJ ",
"J J J $XJ J J J J J J J @XJ J H @X$X$XJ J J |.z J @X@X@XJ J J J H $XJ $XJ J J J J J J $XJ J J J J J ",
"J J J J J J @XJ J J J J J J J J J J J J J J J J J J J J J J J J J J J J J J @XJ J J J K @XJ J J J J "
};
