/* XPM */
static char *_8cf627b07f040d4ad1b391366b21c9fqwyWGYDPPMqIig9V[] = {
/* columns rows colors chars-per-pixel */
"50 50 239 2 ",
"   c #1D0501",
".  c #1D0B02",
"X  c #1E0A0B",
"o  c #1D120B",
"O  c #1B1716",
"+  c #230B02",
"@  c #2B0C01",
"#  c #240804",
"$  c #241203",
"%  c #2C1206",
"&  c #25140B",
"*  c #2D150A",
"=  c #2C190B",
"-  c #271908",
";  c #33150B",
":  c #341B0E",
">  c #3A1C0E",
",  c #381608",
"<  c #211612",
"1  c #2B1612",
"2  c #251B13",
"3  c #2C1A14",
"4  c #241E1B",
"5  c #2A1D1A",
"6  c #341C14",
"7  c #3B1D13",
"8  c #341D1A",
"9  c #3B1F1B",
"0  c #09221E",
"q  c #35230E",
"w  c #3A220F",
"e  c #2B221B",
"r  c #2E2618",
"t  c #342114",
"y  c #3D2215",
"u  c #34231C",
"i  c #3C241B",
"p  c #3D291C",
"a  c #372C17",
"s  c #3B341C",
"d  c #2C270D",
"f  c #172929",
"g  c #183936",
"h  c #132E2A",
"j  c #292728",
"k  c #3B2B24",
"l  c #372724",
"z  c #39332D",
"x  c #2B2F32",
"c  c #2D3434",
"v  c #283838",
"b  c #393631",
"n  c #383A37",
"m  c #2F312E",
"M  c #401B09",
"N  c #422315",
"B  c #42251B",
"V  c #432A1D",
"C  c #4A2A1D",
"Z  c #4B251A",
"A  c #542A1B",
"S  c #4B311C",
"D  c #51301F",
"F  c #432C23",
"G  c #4C2D23",
"H  c #432E29",
"J  c #532E25",
"K  c #502C2E",
"L  c #443423",
"P  c #4D3126",
"I  c #44322B",
"U  c #4B352C",
"Y  c #4D3A2B",
"T  c #4A3823",
"R  c #523225",
"E  c #53352B",
"W  c #533A2D",
"Q  c #5B3A2D",
"!  c #5A3524",
"~  c #4E3733",
"^  c #4D3B34",
"/  c #443A37",
"(  c #553D32",
")  c #5C3E32",
"_  c #533D3A",
"`  c #623D2D",
"'  c #643D33",
"]  c #693D32",
"[  c #673D39",
"{  c #723E37",
"}  c #1A433F",
"|  c #24413D",
" . c #3C423C",
".. c #43423D",
"X. c #5C4335",
"o. c #5C443C",
"O. c #574638",
"+. c #53472F",
"@. c #644234",
"#. c #6B4334",
"$. c #63443A",
"%. c #644B3E",
"&. c #6B4A3C",
"*. c #694839",
"=. c #72453C",
"-. c #744B3D",
";. c #734538",
":. c #6B533E",
">. c #76533F",
",. c #1E3C41",
"<. c #213E41",
"1. c #443A42",
"2. c #1A4947",
"3. c #1C5252",
"4. c #264643",
"5. c #2D4644",
"6. c #274848",
"7. c #344B4C",
"8. c #384747",
"9. c #39524D",
"0. c #2A4D52",
"q. c #2A5454",
"w. c #285858",
"e. c #32555C",
"r. c #355A5E",
"t. c #3B5656",
"y. c #2F504F",
"u. c #2D625D",
"i. c #256159",
"p. c #33645F",
"a. c #2B5F64",
"s. c #365B61",
"d. c #395B62",
"f. c #1C7474",
"g. c #1D747B",
"h. c #1E7A7C",
"j. c #1A7A78",
"k. c #1D6F7A",
"l. c #2B6564",
"z. c #2B6B6C",
"x. c #2A6667",
"c. c #3B6D6D",
"v. c #326766",
"b. c #2B716E",
"n. c #386D71",
"m. c #237475",
"M. c #2C7474",
"N. c #2C7976",
"B. c #24757C",
"V. c #2B767C",
"C. c #247A7E",
"Z. c #2A797D",
"A. c #227A76",
"S. c #347474",
"D. c #317A77",
"F. c #33767B",
"G. c #3B747B",
"H. c #337B7B",
"J. c #3B7B7C",
"K. c #3B7774",
"L. c #306F71",
"P. c #454A45",
"I. c #4A4E4B",
"U. c #474845",
"Y. c #5C4B42",
"T. c #564A45",
"R. c #4D514D",
"E. c #59534D",
"W. c #414A51",
"Q. c #4C5454",
"!. c #495B57",
"~. c #525451",
"^. c #545A58",
"/. c #664B41",
"(. c #6B4D43",
"). c #674642",
"_. c #6B5346",
"`. c #6D544A",
"'. c #685849",
"]. c #735C45",
"[. c #75544B",
"{. c #745B4C",
"}. c #755546",
"|. c #6B5B55",
" X c #675753",
".X c #7B5D54",
"XX c #765B54",
"oX c #744C44",
"OX c #52625B",
"+X c #4D605A",
"@X c #7B644D",
"#X c #7F6A4F",
"$X c #746047",
"%X c #7C6253",
"&X c #7D6B53",
"*X c #7D655B",
"=X c #786559",
"-X c #6D6457",
";X c #545F63",
":X c #4E5D60",
">X c #5B6866",
",X c #5B6D70",
"<X c #42777F",
"1X c #636D6E",
"2X c #7C6763",
"3X c #796A63",
"4X c #696E70",
"5X c #697472",
"6X c #805954",
"7X c #826355",
"8X c #83635A",
"9X c #836B5C",
"0X c #886959",
"qX c #86715A",
"wX c #866B65",
"eX c #887266",
"rX c #93796A",
"tX c #997B73",
"yX c #8E726F",
"uX c #A57F76",
"iX c #1E807F",
"pX c #29807D",
"aX c #35817C",
"sX c #9C8375",
"dX c #1E7C83",
"fX c #1B7880",
"gX c #237681",
"hX c #2A7781",
"jX c #247B82",
"kX c #2A7C83",
"lX c #2B7D89",
"zX c #347D82",
"xX c #397982",
"cX c #1C8284",
"vX c #248183",
"bX c #2B8184",
"nX c #278189",
"mX c #388183",
"MX c #B08F88",
/* pixels */
"C.C.C.iXh.pXh.C.Z.V.Z.kXlXgXdXdXjXdXlXdXB.jXjXlXjXlXlXgXgXlXjXfXjXjXjXgXdXgXC.C.Z.C.N.C.h.dXdXdXjXjX",
"C.C.h.C.pXh.C.C.C.bXkXB.g.gXjXjXdXdXjXdXjXkXgXgXgXB.jXkXjXB.dXlXhXjXjXjXnXlXlXA.Z.V.Z.C.jXdXdXdXjXC.",
"C.C.jXC.C.A.C.C.h.j.pXpXbXhXZ.kXA.C.jXkXZ.C.Z.Z.Z.V.B.kXZ.A.B.kXm.Z.bXA.g.g.h.jXC.C.C.C.jXjXjXdXjXC.",
"C.C.C.C.Z.C.C.C.pXpXj.f.m.H.F.z.N.H.N.N.D.D.H.D.F.D.S.M.D.H.H.M.S.V.N.pXlXbXjXC.C.C.A.C.gXjXjXgXjXC.",
"C.jXjXkXhXhXC.C.j.j.pXpXaXK.c.K.l.l.i.u.z.u.v.p.p.p.u.u.v.v.p.u.K.K.b.N.m.f.f.h.C.C.jXjXC.jXhXhXjXC.",
"C.jXgXhXhXhXZ.C.pXA.N.b.i.} | | g 4.| y.| g 4.4.y.6.5.y.4.g } y.} } i.c.J.H.Z.C.jXdXdXjXjXhXZ.hXC.C.",
"jXjXjXgXhXhXhXZ.A.aXb.2.| !.+XP.m 8.R.Q. .c 8.R.~.I.R.Q.P.n n R.!.9.4.4.w.K.J.m.jXjXdXdXC.C.B.Z.C.C.",
"C.jXgXjXjXjXZ.V.aX3.} 9.!. .e r o e o r r o r 2 4 d 5 2 4 o o r e ..!.9.5.w.S.V.C.jXjXjXhXhXZ.Z.Z.jX",
"kXhXlXfXj.jXf.F.w.g <.n 5 & 3 F F p ^ k ~ p & + 6 F U L I U H k 9 < O / 8.h q.G.zXk.jXjXjXkXV.Z.C.jX",
"B.k.jXh.pXpXH.x.g ;X1.# _ [.7X`./.XX%X_.'.%.* : 6 ( /.$./.[.[..XoX_ _ < 4 W.4.0.xXgXlXgXjXjXA.pXB.Z.",
"lXhXnXh.pXj.z.2.;X<.X K { [.{.%X=X{.O.{.=X`.. = i _.{.O./.%X8X.XoX{ %.o.& n !.2.n.xXkXfXjXh.C.Z.C.C.",
"kXfXC.j.pXN.i.| 1.9 ).tX6XsXtXrXsXwX'.rXsXeX: = t *XsXwX9XrXrXyXtXwX6XMXo.& ~.7.0.xXhXgXjXjXC.C.C.C.",
"gXfXC.A.Z.K.} 9.1.@ [ oX[.[ X./.W +.Y O.Y Y - $ 6 +.%.( X.%.o.X.).).$.(.X.- z Q.2.G.hXhXjXh.jXA.C.Z.",
"jXlXvXN.D.u.}  .l # # # ; # .   + + % %   . - - t $   # % + . @ + . @ # ; & a ^.6.n.hXhXC.jXpXh.C.C.",
"fXfXdXm.K.6.9...1 & 7 E ; i F U V y y F B * + * : : G ( F > B E I k y y w $ k I.<.d.xXhXgXjXC.jXC.hX",
"cXfXjXM.K.} 5XP.k X 7 @ ; ( I U E E : ; ; * @ ; 7 % ; ; , G Q G Y Y t q y : + 1.<.<.<XhXC.nXC.A.C.C.",
"nXg.A.N.N.2.>XO.u 7 Z @ R K G G R R i y V 7 ; % 7 7 J : G G G G G K E ; > > = b I.<.z.zXB.bXgXjXjXC.",
"jXC.pXm.N.3.>XO.1 9 ` , G F K J G P G N $.W # > y B (.: 7 ! Z J J G F 7 Q i 3 ..4X7.z.N.A.jXgXbXhXC.",
"g.jXkXN.aX2.OX..l F ] M V F G G C Q : > X.G % @ 6 B %.N 7 ) R R C Z B = @.y u / 4X5.x.Z.kXkXg.C.jXC.",
"jXlXC.A.bX2.>XT.5 ; A @ ; i Q E T C @ y V % 7 * > y B 7 % > C J E P y % V ; u n 5X7.L.N.B.jXB.jXC.C.",
"jXjXC.Z.zX2.7.b 5 8 #.J i * % @ 7 @ V X.X.p + : : i L W N @ , ; : @ 7 Y E : u ..^.<.L.m.V.C.kXlXC.C.",
"jXgXC.Z.mX3.v b 5 8 oX:.o.U F 7 7 P $.o.'.W % t i V $.%.&.) B , V G ( {.O.i 2 m <.g S.Z.hXkXjXB.jXZ.",
"lXjXA.m.zXn.8.^.5 8 E S U Y P G P O.Y p L p * & = u U k ~ P P G G R Y s V i d P.4X7.<XZ.A.B.jXhXC.jX",
"gXlXhXZ.Z.n.f b O I 7X@X=XwX7X8XXXY =XeX3X|.2 3 l '.=X2X=XU XX*X%X9X9X`.9X+.2 R.4X<.L.B.bXC.jXjXC.C.",
"gXgXB.Z.zXx.<.U.O _ eX0X%X*XeX%X XO.wX X3XyX2 5 e 3X3X X3X_ =XwX.XrXqX&X*XO.2  .1X6.M.C.C.jXB.lXhXC.",
"lXjXC.C.kXx.5.T.5 l (.*./._.[./.o.^ T. XE./ < 4 j T.T. XT.H  Xo.*.].%.+.%.L e I.;X6.J.jXh.jXB.gXjXC.",
"jXjXgXB.Z.x.7.~.j = N , q : N y 8 & |.z b -Xo < e T./ l |.8 8 6 w M w q y & o n 5.0.J.A.h.jXC.C.C.hX",
"dXgXC.A.Z.x.5.~.e 3 Q #.o.X.X.` ).u I |.|./ < 4 e z T.2X~ G 1.) @.@.*.X.X.V e P.<.0.J.g.C.lXC.lXC.C.",
"dXjXZ.A.kXx.7.~.5 l *.>.}.&.}.-.(.i U H I / . 3 u l ^ H ~ 6 $.XX;.#.:.:.@.V j U.<.e.xXgXjXjXg.jXjXC.",
"jXC.pXC.H.x.5.R.j 8 Z N N N A A G % ; * = 6 $ 5 p u . * @ N 7 Z ` A S D G 6 3 I.~.:XF.g.vXC.h.jXC.C.",
"dXC.h.A.Z.l.5.I.e 3 D ! ! D A A J R G G G t * - 3 t E P J J ! J A A Z P G 6 5 ~.7.e.F.g.jXh.jXjXC.C.",
"cXC.A.C.H.v.8.~.e i @.-.&.@.;.-.#.=.(.&.%.W @ * : E %.*.=.oX[ =.-.-.;.&.*.B 5 ~.7.s.J.C.jXh.lXC.C.hX",
"fXvXC.V.<X2.f b o 8 $.] oX{ { { ] ;.@.-.*.G % ; 7 F =.=.#.] -.#.{ { { ;.' G 1 T.7.s.N.C.vXh.C.B.jXC.",
"cXfXhXM.3.e.>X/ k 6 G ' =.' ' oX-.@.` ` C Z : # 7 9 G K *.#.` ] ] ] ] ] J 7 1 ~.7.a.H.h.pXdXhXV.B.jX",
"lXB.zXG.q.!.1XT.u # 6 y N 7 7 , > @ N &.*XXX6 $ 8 XX*X`.7 @ Z w : q q y 6 & 5 E.<.w.H.C.C.jXkXZ.hXC.",
"hXgXF.<Xe.t.^.b l = B B V C L V ; [.tXeXyXeX1 3 l |.wXtXsX].w w L S s s t & < b <.0.H.C.h.B.V.zXZ.C.",
"gXg.Z.J.q.!.5Xn r . - : a a s +.sXsX7XT &.-X+ * 8 `.Y /.=XyXsX*.a a d d d & 5 <.t.2.M.V.C.C.V.hXZ.jX",
"fXjXV.S.v.y.+X..e - - - S :.-X&XqX>.$X7X9X%X% = i `.&X@X0X7X:.7X&X:.+.- - o < I.,X6.z.m.C.kXV.V.Z.jX",
"cXcXh.b.K.g v m < O.9X%XqXsX].s $X7XqX#X@X].q $ q :.&X#X7X#X].S qX0XsX%XqX[.1 z >X0.n.N.C.vXB.Z.C.C.",
"j.j.pXM.n.6.1XU.l Y.{.@.>.7X#XqX#X#X$X:.#X'.$ = q %.&X:.$XqX#XqX7X{.}.! .XXX8 / 8.,.G.kXA.C.C.kXhXB.",
"pXj.Z.K.c.<.>XU.5 ~ 6XtX0X6X8X6X%X@X].*XeX+.@ % q Y 9X7X%X%X].wX.XwX*XwX2X~ 5 1.,.e.G.V.B.dXvXC.C.jX",
"vXf.Z.S.n.0.,XQ.j l 1.|.wXyXwX*XY.Y.Y.'. XY 1 < r I  X XY.Y.O./.wXyX3X-XE.l x ^.<.:XxXhXg.h.C.f.C.C.",
"jXh.Z.V.n.3.w.2.f f f c c v c x j c x c c j O 0 f j n c c c x c v v g x f 0 h g 0.a.hXgXC.vXvXZ.C.jX",
"h.j.Z.Z.V.z.3.w.a.e.v.p.q.q.e.e.r.d.s.s.r.d.s.e.0.0.r.q.e.d.r.r.d.q.w.r.v.v.w.w.a.hXgXgXh.jXA.C.Z.jX",
"pXC.h.h.A.bXZ.aXN.N.N.D.aXaXaXN.Z.N.Z.H.N.Z.zXH.mXzXmXZ.Z.zXH.zXxXG.H.aXN.aXD.S.H.kXnXjXh.C.C.m.C.C.",
"jXvXC.j.h.C.f.pXZ.A.A.jXC.C.A.f.jXh.jXvXC.h.jXjXjXjXC.h.h.h.h.C.Z.V.A.A.f.j.N.bXhXjXdXdXcXjXZ.kXhXC.",
"m.Z.Z.kXkXZ.kXC.C.C.jXkXgXV.kXkXC.C.h.C.C.B.B.A.C.C.C.C.jXC.jXhXlXlXjXpXpXh.A.B.lXjXdXdXh.C.V.V.B.jX",
"hXkXkXZ.Z.g.kXB.jXC.hXgXhXhXlXkXjXbXkXC.Z.jXN.C.C.C.B.C.C.C.C.B.hXkXh.h.h.C.jXjXjXB.dXjXvXC.Z.Z.Z.jX",
"Z.hXB.jXZ.jXC.C.C.C.C.jXjXhXhXjXC.C.C.jXC.hXC.C.hXC.jXC.jXC.C.jXhXhXgXC.C.C.C.jXC.jXjXjXC.C.jXZ.jXC.",
"jXB.jXC.C.C.C.hXjXC.hXC.C.C.jXC.C.C.Z.jXC.C.C.jXC.C.C.C.C.Z.C.jXjXC.C.C.jXC.C.C.jXC.C.C.jXC.Z.B.C.C."
};
