/* XPM */
static char *_364c550318547d4ee9a33b8b5b7c516HJ9sdeXvRcoHQcB9[] = {
/* columns rows colors chars-per-pixel */
"50 50 244 2 ",
"   c #020202",
".  c #0C0301",
"X  c #010C02",
"o  c #0B0B01",
"O  c #080D0B",
"+  c #130200",
"@  c #140D01",
"#  c #1B0C01",
"$  c #170707",
"%  c #01130C",
"&  c #0C120D",
"*  c #071704",
"=  c #141202",
"-  c #1C1302",
";  c #12140C",
":  c #191309",
">  c #1C190B",
",  c #181906",
"<  c #040D11",
"1  c #011212",
"2  c #021A14",
"3  c #031B1B",
"4  c #091819",
"5  c #141513",
"6  c #1B1B14",
"7  c #141C1B",
"8  c #1C1D19",
"9  c #161515",
"0  c #130F15",
"q  c #2B0C00",
"w  c #250803",
"e  c #320A00",
"r  c #241301",
"t  c #231A03",
"y  c #271A09",
"u  c #341806",
"i  c #231B13",
"p  c #2A1C15",
"a  c #211616",
"s  c #311D14",
"d  c #1D210A",
"f  c #05261B",
"g  c #192219",
"h  c #282308",
"j  c #35270A",
"k  c #25261C",
"l  c #282617",
"z  c #33251A",
"x  c #332C1B",
"c  c #372A16",
"v  c #38321A",
"b  c #2B3314",
"n  c #041C23",
"m  c #151C22",
"M  c #281F22",
"N  c #032223",
"B  c #072828",
"V  c #182726",
"C  c #0C332C",
"Z  c #082B34",
"A  c #083637",
"S  c #173739",
"D  c #1C2F33",
"F  c #292928",
"G  c #382D24",
"H  c #393728",
"J  c #293637",
"K  c #3A3834",
"L  c #29302B",
"P  c #431806",
"I  c #493519",
"U  c #543913",
"Y  c #453929",
"T  c #593C2B",
"R  c #443A37",
"E  c #51312B",
"W  c #613323",
"Q  c #16443D",
"!  c #0C453F",
"~  c #39443A",
"^  c #204138",
"/  c #56451E",
"(  c #614F19",
")  c #544829",
"_  c #464638",
"`  c #564836",
"'  c #524E2F",
"]  c #685637",
"[  c #695429",
"{  c #77672F",
"}  c #143D42",
"|  c #173D52",
" . c #273A47",
".. c #0C4A4A",
"X. c #144A4C",
"o. c #184749",
"O. c #19554A",
"+. c #0B4C55",
"@. c #184C54",
"#. c #0E5457",
"$. c #1B5456",
"%. c #14545C",
"&. c #135C5C",
"*. c #185757",
"=. c #264648",
"-. c #24514B",
";. c #285759",
":. c #324F4F",
">. c #32635D",
",. c #27625A",
"<. c #1B5B64",
"1. c #265C66",
"2. c #345D61",
"3. c #1B666A",
"4. c #1C7976",
"5. c #1D757C",
"6. c #1D7B7C",
"7. c #197375",
"8. c #1C6F6E",
"9. c #246D6E",
"0. c #276667",
"q. c #366668",
"w. c #28756E",
"e. c #226B72",
"r. c #296A76",
"t. c #356B74",
"y. c #237275",
"u. c #2C7575",
"i. c #237B75",
"p. c #2B7B76",
"a. c #25757C",
"s. c #2A767C",
"d. c #237A7D",
"f. c #2B7A7C",
"g. c #337375",
"h. c #33747B",
"j. c #3B7C7C",
"k. c #387778",
"l. c #37726E",
"z. c #196259",
"x. c #494745",
"c. c #574A42",
"v. c #595546",
"b. c #515753",
"n. c #665647",
"m. c #72564E",
"M. c #59635A",
"N. c #6B6556",
"B. c #756757",
"V. c #7B755C",
"C. c #716A46",
"Z. c #437777",
"A. c #4A6968",
"S. c #6B6864",
"D. c #756D65",
"F. c #77736A",
"G. c #767B74",
"H. c #6E746E",
"J. c #8B6E3C",
"K. c #857759",
"L. c #8D734D",
"P. c #877866",
"I. c #897E75",
"U. c #8F7665",
"Y. c #26827E",
"T. c #37817B",
"R. c #878557",
"E. c #AE8B4A",
"W. c #BCA258",
"Q. c #8B8669",
"!. c #948A6B",
"~. c #8B8374",
"^. c #898677",
"/. c #948977",
"(. c #989478",
"). c #A68D65",
"_. c #B79665",
"`. c #A5977A",
"'. c #A78C71",
"]. c #BAA675",
"[. c #C49864",
"{. c #CFB172",
"}. c #E4B866",
"|. c #E4BB7A",
" X c #EAB95D",
".X c #DAC476",
"XX c #EECD77",
"oX c #1D7B81",
"OX c #1A7685",
"+X c #267681",
"@X c #2A7581",
"#X c #237A82",
"$X c #2B7A83",
"%X c #257A8B",
"&X c #337A82",
"*X c #387984",
"=X c #257991",
"-X c #417D87",
";X c #1E8186",
":X c #278285",
">X c #388288",
",X c #408487",
"<X c #978B87",
"1X c #989687",
"2X c #898F89",
"3X c #A99B8B",
"4X c #A39D96",
"5X c #B29F8E",
"6X c #B7A58B",
"7X c #A9A399",
"8X c #B7AA98",
"9X c #B2A98C",
"0X c #BEB0A3",
"qX c #C8AC88",
"wX c #CAB48A",
"eX c #C6AE95",
"rX c #C4B393",
"tX c #CAB493",
"yX c #C9B995",
"uX c #C5B49A",
"iX c #C9B49A",
"pX c #C5BA9A",
"aX c #D2B99A",
"sX c #D4B682",
"dX c #CCBBA3",
"fX c #C7B7A7",
"gX c #D3BCA8",
"hX c #CBBDB1",
"jX c #E3BFA5",
"kX c #E8BB9A",
"lX c #D5CC98",
"zX c #E9C688",
"xX c #E8D190",
"cX c #FBE69A",
"vX c #C9C3A7",
"bX c #D3C9AA",
"nX c #DDD5A6",
"mX c #D8C7B7",
"MX c #CFC1B4",
"NX c #E8C9AA",
"BX c #E4D3B1",
"VX c #FBE7AB",
"CX c #D0CCC4",
"ZX c #E2D1C6",
/* pixels */
"d.d.#Xa.+X+X@X@X@Xs.f.d.d.6.oXY.6.6.6.oXd.d.#X#XOX#X#XOX$X@X+X@Xs.s.$Xd.d.d.6.6.6.Y.4.6.+X@X@X@Xs.d.",
"6.d.d.#X+X%X%X@Xa.d.a.d.4.6.6.d.oX6.d.6.d.d.#X#XOX#XoX5.#X#X@X@X#Xd.d.a.a.d.d.d.d.d.d.d.#X+X@X@X@Xd.",
"f.a.a.#X#X%X+XOXd.d.Y.d.f.d.#X#Xd.d.f.f.f.a.a.d.f.d.6.Y.6.6.#Xd.oX#X#Xa.d.f.a.d.6.d.oXd.#Xa.@Xa.d.#X",
"f.a.a.d.#XoX5.5.6.6.d.d.d.#X#Xa.f.f.f.a.s.a.f.f.6.4.6.Y.4.Y.d.4.6.oX6.d.s.s.@Xd.#Xd.#X6.d.#X#X#Xd.d.",
"f.d.#X#X#X6.6.d.d.4.4.y.a.+X+X#X6.a.d.f.f.a.s.d.6.d.6.4.4.d.i.7.6.;X6.oX@X@X@X@X@Xd.6.d.oXd.d.#X#Xd.",
"a.d.#X#XoXd.d.d.T.f.p.u.a.#X%X#XoX6.#XoXd.d.#Xf.d.$Xd.a.f.f.f.d.d.6.6.d.+Xs.@Xd.@X+Xd.d.d.6.d.6.d.a.",
"oXoX#X6.d.$Xf.9.*.0.g.j.h.d.+XOXOXOXOXoX#X+X$X$Xy.f.s.@X*X3.<.*Xs.d.a.f.d.a.6.oX#X+Xd.#X#Xd.6.d.d.d.",
"6.;XoX6.f.f.u.*.3 A ;.t.k.u.a.+XoX6.oXoX+Xf.@Xh.*Xj.t.*Xt.A n X.g.u.u.f.d.d.4.7.a.$X@X+Xd.d.6.6.#Xd.",
"oX#XoXd.d.f.g.l.Z 3 N S t.Z.*Xh.s.u.f.,Xh.q.q.;.;.;.;.2.A.=.n n Z 2.t.g.i.6.7.Y.#Xs.@Xs.a.d.6.d.d.d.",
"#X6.oX#Xd.f.h.l.o.3 B 3 A 2.q.Z.q.Z.2.Q N 3 1 3 % % % % & 4 0 m 7 3 =.k.T.Y.Y.7.d.#X@X@Xa.f.d.6.d.d.",
"s.s.a.#Xd.d.p.g.;.3 J A.m V :.V g 4   5 R D.P.1X1X1X1X~.N.v.G : $ 8 4 Q 0.w.Y.Y.d.d.@X@Xs.d.d.f.d.a.",
"h.s.a.#X6.d.f.u.k.C 3 H.H.O O F v.v.B.3XfXhXgXgXiXpXvXbXvXbXfX6XN.p O 2 Q T.Y.w.d.a.@X+Xs.f.a.d.#X#X",
"@Xh.+X#XoX6.d.u.Z.-.% x.7XN.: G 8XBXgXgXaXeXeXeXyXtXpXtX8XrXaXvXmXhXv.& 2 Q l.u.f.a.d.#Xd.#Xd.#Xd.d.",
"@X@XoXoXoXoXa.u.A.=.& k ~.4XB.. G 3XdX8XtXlXkXeXtXrXtXyXyXrXtXtXiXuXmX^.; 4 ;.Z.u.d.d.oX6.d.d.s.a.d.",
"s.#XoXoX;XoX6.h.;.V & @ N.(./.] X v.dXdXrX8XrXeXtXtXrXrXiXdXuXuXuXiXgXCXI.9 1 q.h.6.6.oX6.#Xd.d.#Xd.",
"+X5.6.6.6.oX#Xk.S O v.$ Y /.!.(.b * (.vX0XtXdXuXeXdXdXuXiXiXeXiXeXiX8XgXZXS.O S t.6.6.Y.6.d.s.f.@X#X",
"%X#Xi.i.5.7.*X2.4 K <Xz t N.U.(.K.= H vXwXrXfXhXgXuXfXfXtXwXtXaXyXdX5X/.fXMXF % $.$X#Xd.T.p.f.f.a.%X",
"%X#Xi.i.d.5.*X@.< m.3X` + _ P.!.(._ X Q.bXqXgXm.n.fXhXpXwXsXaX6X`.mXN.  (.ZXB.X } h.f.u.,.O.0.Z.*X&X",
"a.a.i.i.#X$Xr.Z M I.(.V.> k N.B.~.F.= v.bX5XhXT . 3XuXrXyXyX0Xn.r 3X4X  c.hX7X0 n A.Z.@.B 2 % Z ;.u.",
"a.a.d.6.#X$Xt.n F /.~.1Xb.o Y P.D.G.8 k fXgXmXU.. N.bX8XwXyXMX~.. B.MXp I hXCXG < :.A.4 : S.M.m N o.",
"s.@Xd.4.d.f.q.2 K 4X^.2XM.o - u R x.F 6 /.8X8X3X* ' vXpXyX9XfX7X# H <XG s c.` l 0 J ~ 5 Y m.K.P.2 N ",
"s.@X#X6.d.u.>.2 H B.<X<X_ o ) c p a & . > r y G g V d d j j y - l o 8 ; k s $ ; p :.5 - n.) T z 7 S ",
"@X@XOX4.Y.i.>.2 = + y v.v t !.!.P.s r G i - @   X V H ' U I ` n.v._ F & 6 H H = L k : v.n.I E @ S q.",
"s.s.OXoX:Xd.0.2 b Q.P + w j !.`.U.+ G /.`.3XI.M.L X l v.'.qX'.] h ; l x.c.k ; ; 6 F . l Y Y # 6 0.f.",
"p.y.%X%XOX=Xs.S * `.{.J.U q y V.`.) @ = r c I.<X7X1X_ + / ).u # ` P./.n.K G & 5 8 H.N.8 = g = :.k.s.",
"T.8.oX%XOX=X$X0.* h lX|.E.J.h x C.K.= j L.W w e s ` c.q J.L.+ ) B.E . v p & 8 8 9 & K H.A.V 4 A.h.$X",
"Y.8.d.%XOX%X$Xh.C X / zX{._.` . , h , lXcXcXkXW e e w e sX].[ - + W '.m.I.a a . G K 5 4 ^ S N q.u.d.",
"i.4.#X%X=XOX+Xj.>.f # J.[.L.c y 8 o ~ BXxXcX[.P u m.m.w sXxX{.( + jXjXe c Y . M a K K n 3 Z $.j.s.f.",
"4.#X#X#X@Xa.w.u.h.o.g - ] ]   N.x.  x nXcXXX_.e e W E P {.{..X{ + qXNXU B.K & 9 E a $ B ;.*X,X9.f.i.",
"6.#X+XOXa.s.u.i.a.*XA 1 y j , vXF.9 = V.VXcXVX).U.U.w ( .X}.XXE.r U NXBXB.@ 9 5 x.D.K 3 t.$Xe.:Xa.a.",
"i.i.OXOX@Xf.u.i.%X#X*X} g . H dX5Xr - @ ) K.K.(.K.- j W.XX X XXX[ @ h h h ; g F . i & N h.>XoX4.d.a.",
"i.4.#X%X@Xu.u.a.5.%Xa.*XS & S.hXMXT @ n.I # q - - [ ]..X}.}.}.{.nXR.{ ' = d 2Xx.& g :.t.$X7.:X4.a.a.",
"i.i.f.d.a.s.a.d.oXOX@Xh.} 1 J S.S.z + K.`.qXwXqX_.L.].xX{.{.zX_.{ 9XQ.v . K S.L 1 ;.T.i.6.#Xa.+X+Xa.",
"i.d.d.f.s.s.d.#X#X#X#X&X1.} Z <   i p + . U sXR.w + u m.I r [ t . = @ . p 6   1 o.0.Y.4.6.6.+X$X+Xd.",
"6.6.i.a.s.f.s.+X#X$Xa.a.h.l.2.S ~ * d !.!.- t - c /.Y # G Y y H K.t y Y c.5 V S q.u.i.5.#X#Xa.@Xd.#X",
"Y.6.d.a.s.f.@X+X5.+X#X$Xu.u.j.A.^ d * v.V.- t @ _ 1XF.x.4XCX1Xx ` y - v.H g 3 Z.g.f.a.a.$X#X5.a.d.a.",
"6.6.d.f.s.s.@X$X#X#XOXd.a.9.u.>.X h H : : . N.v.- i 6 . K 4XY $ = l - l g 3 >.j.s.f.@X@X$X$Xd.6.d.#X",
"d.6.d.d.a.@X#XOX#X:X5.4.f.T.u.-.* - v Y Y + H ` : > ; o > @ a # h Q.F.; 2 :.j.f.a.$X$X@Xs.s.d.6.d.d.",
"+X@Xs.@Xs.d.#XoX7.;X%Xd.$Xh.,.f h ] y r r y p p l c h v v c c Y . v.CXg f Z.g.8.d.#X$X@Xs.d.d.d.f.d.",
"@X@X@Xa.#Xd.oXoX;X;X6.d.f.g.O.% !.bXtX6X] + z x z b l h H p s p # b.M.% o.j.w.:X#X5.+X$X$Xf.d.4.d.#X",
"@X@X$X#Xd.d.6.oXOXOX+X@X@Xt.| o (.lXlXnXC.* t G b ~ H l : K c.$ G K * C k.f.y.+X+X+X+X@X+Xd.f.d.d.d.",
"@X#X#X#Xd.d.OX#X%XOX@X@Xt.Z.;.B b { R.{ b = @ _ ~.7XG.k O K x.F ; 5 Q >.l.8.&Xy.@X%X%X+X#X5.a.i.a.d.",
"#XoX#Xd.#Xd.a.a.$Xh.r.r.r.t.2.o.= , . @ = G _ ; ; F O 0 K F 9 0 & J ;.l.9.3.f.a.@X@X%X+X6.6.a.d.d.d.",
"oXoXoXd.6.f.s.s.u.r.r.1.1.1.;.-.:.~ ~ 0 g R L F & L 0 a  .J 9 V m 2.O.! z.z.&.3.1.e.a.OXd.d.d.a.@Xd.",
"OXoX#Xd.d.d.i.u.r.<.<.%.+.+.@.X.@. . .m m J m 7 m  .V n L L 7 % =.o...X.%...#.%.&.<.3.y.#Xd.#Xd.d.d.",
"#X#X6.Y.d.4.d.a.3.<.%.%.X.......%.| =.| Z 3 D n  . . . .B 2 B ^ O.} ..$.X.X.%.+.#.<.3.a.a.#X#X#Xd.#X",
"@X@X#Xd.d.Y.4.6.e.3.3.<.*.$.$.@.#.+.*.! -.=.C :.=.@.| | o.$.O.Q ..#.$.o.o.$.*.%.3.3.e.s.s.#XoX6.d.d.",
"@X@Xf.d.d.6.6.6.d.OXa.e.3.3.0.3.3.&.z.z.O.O.,.O.$.<.%.%.;.*.*.*.&.&.1.1.0.0.9.u.e.a.s.s.s.+X6.#Xd.#X",
"@Xs.s.#Xd.d.d.d.d.a.a.a.s.s.s.s.y.7.y.9.9.9.w.9.0.9.e.9.e.9.9.9.4.y.y.a.s.s.s.a.d.a.f.a.#Xd.d.d.#Xd.",
"#Xd.d.d.d.d.d.d.d.a.#Xa.#Xd.d.a.a.s.a.a.f.a.a.a.a.a.a.a.a.a.s.y.a.a.a.a.a.a.f.d.#Xa.d.d.#Xa.d.d.a.d."
};
