/* XPM */
static char *e77258fb08514a29abd901d333573a79Fs2B3VEbxfC8wtdg[] = {
/* columns rows colors chars-per-pixel */
"50 50 154 2 ",
"   c #2D261E",
".  c #2F2821",
"X  c #332C24",
"o  c #373029",
"O  c #3B342C",
"+  c #3F3730",
"@  c #3F3830",
"#  c #433C34",
"$  c #473F38",
"%  c #474038",
"&  c #4C443D",
"*  c #4F4740",
"=  c #4F4840",
"-  c #534C44",
";  c #574F48",
":  c #584F48",
">  c #575048",
",  c #5B534C",
"<  c #5F5750",
"1  c #60574F",
"2  c #60584F",
"3  c #605750",
"4  c #645B54",
"5  c #685F57",
"6  c #675E58",
"7  c #685F58",
"8  c #686057",
"9  c #6C635B",
"0  c #70675F",
"q  c #71685F",
"w  c #706760",
"e  c #746B63",
"r  c #786F67",
"t  c #796F68",
"y  c #7C736B",
"u  c #80766F",
"i  c #81786F",
"p  c #817770",
"a  c #847A73",
"s  c #887E76",
"d  c #897F78",
"f  c #898077",
"g  c #8D827A",
"h  c #90867E",
"j  c #93887F",
"k  c #928781",
"l  c #968B83",
"z  c #998E86",
"x  c #9A8F88",
"c  c #9B9086",
"v  c #9D928B",
"b  c #A2968D",
"n  c #A0958E",
"m  c #A1958F",
"M  c #A1968E",
"N  c #A1968F",
"B  c #A2968F",
"V  c #A2978F",
"C  c #A0958D",
"Z  c #A1968E",
"A  c #A3988F",
"S  c #A3998F",
"D  c #A2988F",
"F  c #A3988E",
"G  c #A19690",
"H  c #A29790",
"J  c #A39790",
"K  c #A29791",
"L  c #A29790",
"P  c #A39891",
"I  c #A39890",
"U  c #A39892",
"Y  c #A49990",
"T  c #A49991",
"R  c #A69991",
"E  c #A49A91",
"W  c #A59A91",
"Q  c #A59B91",
"!  c #A69B91",
"~  c #A49892",
"^  c #A49992",
"/  c #A59992",
"(  c #A49993",
")  c #A59993",
"_  c #A59A92",
"`  c #A59A93",
"'  c #A59B93",
"]  c #A69B92",
"[  c #A69A93",
"{  c #A79B93",
"}  c #A59C91",
"|  c #A69C92",
" . c #A79C92",
".. c #A79D93",
"X. c #A79B94",
"o. c #A59A92",
"O. c #A89D93",
"+. c #A99C94",
"@. c #A89D94",
"#. c #A99D94",
"$. c #A99D95",
"%. c #AA9D94",
"&. c #A99F94",
"*. c #AA9E95",
"=. c #AB9E95",
"-. c #AA9F95",
";. c #A99F96",
":. c #AA9E96",
">. c #AB9E96",
",. c #AB9F97",
"<. c #AC9F97",
"1. c #A99E95",
"2. c #AB9F98",
"3. c #ACA097",
"4. c #ACA097",
"5. c #ACA098",
"6. c #ADA198",
"7. c #AEA198",
"8. c #AEA199",
"9. c #AFA199",
"0. c #AFA398",
"q. c #AFA299",
"w. c #AFA39A",
"e. c #AEA299",
"r. c #B0A39A",
"t. c #B1A49B",
"y. c #B2A59C",
"u. c #B2A59D",
"i. c #B2A69D",
"p. c #B4A79D",
"a. c #B4A79E",
"s. c #B2A59C",
"d. c #B6A99F",
"f. c #B5A89E",
"g. c #B7AAA1",
"h. c #B6AAA0",
"j. c #B8ABA1",
"k. c #B9ABA1",
"l. c #B8ABA2",
"z. c #B9ABA2",
"x. c #BAADA3",
"c. c #BAADA4",
"v. c #BCAEA5",
"b. c #BDAFA6",
"n. c #BAADA3",
"m. c #BFB0A6",
"M. c #BFB1A7",
"N. c #BEB1A6",
"B. c #BFB2A8",
"V. c #C2B5AA",
"C. c #C2B4AA",
"Z. c #C7B8AE",
"A. c #CBBBB1",
"S. c #DFCDC3",
/* pixels */
"z v v 7 a ) v v v v c c z z c c c c f q C.) S S ! 4...! ....v v , z C.S ) ! G P P ....P ~ ) ) ) v v ",
"z G l w l v v x z c v z c v v C c b h & v 6.) ) P C P ( G 2.v v 1 j.<.) O.v n v z v G v G 2.C v v v ",
"x v a 9 S v v v v S A C z h a y q 9 , X O , 9 t y a g p l x x f ; b...! ! z v v v G G ( 2.C x v v v ",
"k d , & y a s a e 4 4 - % # 8 s g g g l p s s u y r 9 5 9 4 3 $ - 6.0.$.4.v v v v m C C x l G v z v ",
"4 : $ & ; 4 8 9 4 7 8 7 O - 6.b.f.x.x.p.j.c.b.j.j.j.u.p.2.C l * $ y k ( a y a p a p y y p y e 9 7 e ",
"f j C $.O.O.$.<.v C G ) y - $.6.O.0.t.$.r.6.r.$.>.+.R 2.2.p.~ 4 ; * , ; & > , , , : ; ; + O 1 y g k ",
"~ G G G v x z v v v z z l * 9 $.S v C ) ) C G G ~ ~ ~ L x l u - y g k l x x z g x x x G - 7 2.$.2.~ ",
"z v ( n v v v G C v z z l j , d t.) v l g g k j s p r 9 < 3 # # z ' v v m v v v v x x z * g ~ x x x ",
"x v n x v v c S c z c C v v < # , 5 r r e t a g k a a f h l f & g S v z v v v x c c c g - i z v v n ",
"x v v k l c v S c j h i w 6 5 , o f d.0.x.N.x.0.3.t.0.0.e.} 0.9 y v l c v l C v c v h C 9 u ) v v x ",
"j z v v S v h a t q 9 e a z ( n 4 ! 4.v ! ! S ) S 0.t.! P ..P 9 O & - , = % w g l c c h , 9 S l z z ",
"b C v j i q 4 r s h c v v v x x y S 4.! ! 4.....O.<.! ! v v P h 1 j C j y % 2 8 4 9 , O . a ) l C ~ ",
"y 9 5 8 e d h v v v z z v v v l y 4.S 4.! ) ) S v v v v v v ! v 9 f.b.x.c.r.x.p.4.c g e & a B.i.<.v ",
"8 t g c c v v v c C z z v v z 5 > N.S v C v C ) 2.6.$.) v l f r & +.f.t.r.r.p.6.t.f.x.N.y 4 y 6 1 , ",
"z c v v v v v z v v v C v S z - $ l x.b.) l a t r > , r 8 ; ; * # d g.+.<.S r.t.p.) h O.g @ , y s l ",
"v ! $.C x P v z j j h f p y ; % - o 2 ; 4 0 w y 5 o g 6.G v m G t 7 v x v C v ~ C C z c 5 - f c z z ",
"4 5 e , & 2 , 7 5 5 8 8 4 4 8 y g v S a C j.k.j.k.t r r.z v v C z - 9 v v C x y p d a 4 % - - % < 4 ",
"y u y a 1   r r.3.p.i.d.N.N.B.N.j.f.d.x.y.y.r.r.p.v , v C k h g e # & 9 q 9 < * @ ; y k v P z e g a ",
"C ..G ( g 4 C.c r.p.f.i.4.i.m 4.r.+.d.0.S k.v $.k.A & 4 9 - , e a j k v v v g k = e 4.m v v v v m P ",
"j x v C s e j.<.t.i.i.i.0.i.v m ~ C A A ~ +.v G $.C 5 o 9 s v C G C l v v v v ( w < m x v v v c v v ",
"k z c c 9 y x.y.t.t.3.3.' v m v v x v x x x v v v G w 4 6.G m k l v v v v z v C w 8 ( v z z c c z z ",
"c v v v 5 - i p.i.) $.O.v v v x v v x ~ +.+.) G x r - - C v C v v v v v v C v C e < C C P C S c c c ",
"a i 9 5 : # # 0 a l z s a x U U G ~ C g p y y 9 & X 8 % 8 P l l c c z j j a i y >   # - 8 q y l h h ",
"& & i C C.y.j r , # # O % = , 8 4 * # # + & # $ & - - , , e w 5 > > % # # : & 2 6 8 ; , 5 < , , 4 < ",
"w 8 C.C 4.p.f.t.f.! g y e w t < X w z k v x h z ( ) S ) ! G C z d k p y $ v b =.N.x.h.b.x.x.~ j z ! ",
"4 , V.O.! 3.! S ! 4.0.w.e.e.l.f & m.~ v v z v A C v v v v v x n C v G ) , h x.3.<.3.6.<.r.~ f.i.l.0.",
"g & r.$.l.0.} 4.$.! C ) } v v q + C ~ l G x z +.v v v v x g G x c v v v , h x.y.t.f.+.+.p.t.4...! P ",
"f , b.G S v v v C v v v v v v y O C ~ C +.v c c l z z z k j C z z l z c 4 A j.=.p.C ( C C C x x v v ",
"e & v i.v P P v C G G ) G C C y X z <.v z z j z z c S C C A C C v c C g $ p p.<.$.C v v v v ( x k z ",
"O , & r z g $.w.$.S p , 9 7 5 , $ 1 z C S C 4. .A s a k g p g j j s y : X # & * 3 u a p y y r < # % ",
"9 r < @ - = % & $ # , 5 9 z r.3.r.0 : r p.v s r 5 , , w ; X # % : : 9 a z z s - ; & O # 4 4 4 , > 8 ",
"v m ( f f k d y t & $.C.b.z.p.p.r.r.+.0 ; 5 q p t k C $.0 : c b j R y.j.r.j.<.x c.f X , ..P P v m ..",
"x v v v h S v v x = h f.O.$.P ) S t.x.c 4 ) ......G ( d 4 +.j.r.A f.f.y.r.2.u.h.2.: - z C x v v v v ",
"x x v v v v v v v < g B.3.C ) $.0.4.S w 9 h t 9 y t w > C j.r.i.~ A +.<.r.2.+.+.t o y v x v v c z c ",
"l z k v v c z v ' 9 w v a 5 q y 8 8 , > , 8 9 y y 8 X , h.r.j.C x x z x v k v k $ 5 v g j c l z l l ",
"c c l z c c l z v e o = 4 9 t r t f l v S v P P ( v < O g p.$.v C C C C n ~ v < # l O.v c C C v v v ",
"f c v } v c S c v 9 9 ! v S P P S v v v v l g v z k y + v 6.v 6.g.$.x a e 9 * X X - 9 w 2 9 y u p f ",
"< 8 < 4 9 4 y f v w e i.S v v z v v v v C S S v z v l , w p 4 , < * & * - < 9 e 5 - o X & , 4 2 < 4 ",
"v v = # < < r 4 - & - w 9 , 8 e e 8 e e q q 9 9 8 6 , $ o % , 4 4 g x C $.r.2.~ v ( 5 < P ! S O.v v ",
"v v y w 4.v ..P j g f u e w , - < y g a y y 8 w y w 7 # % O.f.) +.+.G C x x v x l ( 8 , v v z c z v ",
"z v v 5 c v l z v v c C ( ( x % f 4.v ( P ( G ( v v ..r O f 4.x v x v C C v C v v ~ 7 3 v v C C z v ",
"l f z e p P v ..S S C v C v k , j v x v v v z v x x x y o y ..x v v x c v S v c j d % $ , 8 9 w g v ",
", , - & % > = w e y a a a k d & 9 v v v v v x v v v c l - , 4.x v z c C C c l c g , e ) l s r 8 > - ",
"c 0.O.l C c 9 - 9 y r r e 8 & o a P l z z l l c z z c v y + l e.z c c C C 3.+.z 9 , g.h.h.c.h.c.4.= ",
"h S ) 0.4.w.k y w.4.' v S C q . p C v v P } } v v v v c l % - e u <.c g 4 , , % X # 9 9 9 r y a f < ",
", , 4 < 9 9 = @ 4 e 9 8 9 5 ; # > 4 5 4 4 9 8 8 9 r e w 9 O & - & & , a h y w 9 9 5 , - 4 3 4 4 8 5 ",
"k f v , @ e a k y y l z x k g v f t % # y g f f e > 9 4 > & > 8 9 . e V.x.N.V.A.C.h.t.3.r.6.2.2.4.S ",
"v $.6.a y 4.x U U ' m v v P v v P $.p < V.0.h.i.0.} e.4.4.4.v w o 4 A C.t.S S $.3.t.t.3.4.4.$.3.! 4.",
"S ! 4.y f v v v v v U k g m x v v m a < h.4.} P } ..4.} v 4.4.f., u S.x.3.S O.O.S c O.! x.! v ! 4.S ",
"v S z < k P v v v v v v v v x x v m s w i.' ..} ' 4.i.4.4.U v D : 0 Z.) S v O.O.! 3.f.N.0.4.v l 4.v "
};
